<svg xmlns="http://www.w3.org/2000/svg" xmlns:xlink="http://www.w3.org/1999/xlink" width="500" zoomAndPan="magnify" viewBox="0 0 375 374.999991" height="500" preserveAspectRatio="xMidYMid meet" version="1.2"><defs><clipPath id="3ea63ad4c4"><path d="M 284 55.390625 L 288 55.390625 L 288 69 L 284 69 Z M 284 55.390625 "/></clipPath><clipPath id="f0c0f85af9"><path d="M 279 55.390625 L 297 55.390625 L 297 246 L 279 246 Z M 279 55.390625 "/></clipPath><clipPath id="7aa87d4472"><path d="M 351 104 L 363.542969 104 L 363.542969 140 L 351 140 Z M 351 104 "/></clipPath><clipPath id="4815067e37"><path d="M 262 182 L 347 182 L 347 262.390625 L 262 262.390625 Z M 262 182 "/></clipPath><clipPath id="125cd77c3c"><path d="M 262 182 L 306 182 L 306 262.390625 L 262 262.390625 Z M 262 182 "/></clipPath></defs><g id="c9f2eb84bc"><g clip-rule="nonzero" clip-path="url(#3ea63ad4c4)"><path style=" stroke:none;fill-rule:nonzero;fill:#e9e6e5;fill-opacity:1;" d="M 284.5 57.335938 C 284.453125 56.597656 284.671875 55.9375 285.027344 55.613281 C 285.164062 55.476562 285.332031 55.390625 285.515625 55.382812 L 285.535156 55.382812 C 285.835938 55.375 286.128906 55.566406 286.347656 55.890625 C 286.574219 56.21875 286.730469 56.683594 286.761719 57.207031 L 287.082031 62.585938 L 287.3125 66.433594 C 287.375 67.476562 286.921875 68.355469 286.296875 68.386719 C 286.113281 68.394531 285.941406 68.335938 285.78125 68.21875 C 285.390625 67.933594 285.09375 67.304688 285.054688 66.566406 L 284.816406 62.5625 L 284.503906 57.335938 Z M 284.5 57.335938 "/></g><path style=" stroke:none;fill-rule:nonzero;fill:#e7c785;fill-opacity:1;" d="M 292.429688 231.382812 L 295.746094 231.183594 L 299.960938 230.929688 L 300.230469 235.429688 L 300.460938 239.265625 C 300.65625 242.539062 300.089844 245.238281 299.195312 245.289062 L 296.574219 245.449219 L 294.886719 245.546875 C 293.996094 245.605469 293.125 242.996094 292.925781 239.714844 L 292.699219 235.886719 Z M 292.429688 231.382812 "/><path style=" stroke:none;fill-rule:nonzero;fill:#7ba9d3;fill-opacity:1;" d="M 279.433594 87.652344 L 279.550781 87.652344 C 279.550781 87.652344 287.382812 87.175781 287.382812 87.175781 L 296.011719 86.65625 L 303.683594 215.097656 L 303.886719 218.453125 L 304.25 224.589844 L 304.355469 226.375 L 304.53125 229.230469 C 304.726562 232.507812 303.289062 235.257812 301.332031 235.367188 L 300.234375 235.433594 L 296.011719 235.691406 L 292.703125 235.894531 L 291.847656 235.945312 C 289.890625 236.0625 288.144531 233.503906 287.953125 230.230469 L 287.671875 225.597656 L 287.308594 219.457031 L 279.4375 87.65625 Z M 279.433594 87.652344 "/><path style=" stroke:none;fill-rule:nonzero;fill:#e7c785;fill-opacity:1;" d="M 287.007812 219.46875 L 287.304688 219.453125 L 295.035156 218.984375 L 303.882812 218.453125 L 303.679688 215.097656 L 305.234375 215.003906 L 302.554688 170.121094 C 302.484375 168.960938 303.011719 167.988281 303.722656 167.945312 C 304.433594 167.90625 305.074219 168.804688 305.152344 169.964844 L 308.535156 226.667969 C 308.617188 228.015625 308.433594 229.125 308.128906 229.148438 L 306.644531 229.238281 C 306.335938 229.253906 306.027344 228.171875 305.945312 226.824219 L 305.945312 226.753906 C 305.945312 226.753906 305.046875 226.804688 305.046875 226.804688 C 304.679688 226.828125 304.371094 226.636719 304.351562 226.375 L 304.246094 224.589844 C 303.707031 224.714844 302.390625 224.863281 300.847656 224.949219 L 295.402344 225.277344 L 291.050781 225.539062 C 289.539062 225.628906 288.230469 225.644531 287.667969 225.585938 C 287.476562 225.570312 287.367188 225.546875 287.367188 225.507812 L 287.007812 219.464844 Z M 287.007812 219.46875 "/><path style=" stroke:none;fill-rule:nonzero;fill:#e7c785;fill-opacity:1;" d="M 279.480469 88 L 279.550781 87.648438 L 284.207031 63.574219 L 284.453125 62.371094 C 284.566406 62.445312 284.691406 62.511719 284.816406 62.570312 C 284.867188 62.597656 284.925781 62.625 284.984375 62.648438 C 285.1875 62.726562 285.410156 62.792969 285.621094 62.816406 C 285.734375 62.835938 285.851562 62.84375 285.96875 62.84375 C 286.019531 62.84375 286.074219 62.84375 286.132812 62.839844 L 286.160156 62.839844 C 286.480469 62.816406 286.792969 62.734375 287.078125 62.59375 C 287.136719 62.5625 287.191406 62.539062 287.246094 62.507812 C 287.417969 62.417969 287.582031 62.304688 287.738281 62.175781 L 288.128906 63.347656 L 296.011719 86.664062 L 287.398438 87.367188 L 279.484375 88.007812 Z M 279.480469 88 "/><g clip-rule="nonzero" clip-path="url(#f0c0f85af9)"><path style=" stroke:none;fill-rule:nonzero;fill:#000000;fill-opacity:0.15;" d="M 287.304688 219.453125 L 279.433594 87.652344 L 279.550781 87.652344 C 279.550781 87.652344 284.207031 63.574219 284.207031 63.574219 L 284.453125 62.371094 C 284.566406 62.445312 284.691406 62.511719 284.816406 62.570312 L 284.503906 57.339844 C 284.457031 56.601562 284.675781 55.941406 285.03125 55.617188 C 285.171875 55.480469 285.339844 55.398438 285.519531 55.386719 L 285.539062 55.386719 C 285.539062 55.386719 296.582031 245.453125 296.582031 245.453125 L 294.898438 245.550781 C 294.003906 245.609375 293.132812 243 292.9375 239.71875 L 292.707031 235.894531 L 291.855469 235.945312 C 289.894531 236.0625 288.148438 233.503906 287.957031 230.230469 L 287.675781 225.597656 C 287.484375 225.578125 287.378906 225.554688 287.378906 225.515625 L 287.019531 219.476562 L 287.3125 219.457031 Z M 287.304688 219.453125 "/></g><path style=" stroke:none;fill-rule:nonzero;fill:#e7c785;fill-opacity:1;" d="M 268.75 114.042969 C 263.125 104.644531 253.828125 99.878906 247.984375 103.402344 C 242.148438 106.921875 241.964844 117.398438 247.589844 126.796875 C 250.523438 131.703125 254.464844 135.34375 258.386719 137.207031 C 259.886719 137.925781 260.96875 139.25 261.328125 140.863281 L 264.203125 153.785156 L 267.59375 169.050781 L 268.070312 171.183594 L 268.300781 172.238281 L 268.273438 172.257812 L 300.203125 216.632812 C 300.347656 216.832031 300.535156 216.925781 300.730469 216.945312 C 301.296875 217 301.90625 216.425781 301.597656 215.789062 L 294.316406 200.902344 L 282.960938 177.679688 L 277.570312 166.648438 L 277.003906 164.070312 L 276.867188 163.453125 L 271.550781 139.503906 C 271.054688 137.269531 271.246094 134.917969 272.046875 132.699219 C 273.800781 127.816406 272.71875 120.65625 268.753906 114.03125 Z M 263.117188 117.441406 C 267.476562 124.726562 266.683594 131.21875 265.171875 132.132812 C 263.664062 133.039062 257.582031 130.6875 253.222656 123.402344 C 248.867188 116.121094 249.660156 109.628906 251.164062 108.71875 C 252.667969 107.808594 258.761719 110.15625 263.117188 117.4375 Z M 263.117188 117.441406 "/><path style=" stroke:none;fill-rule:nonzero;fill:#e9e6e5;fill-opacity:0.5;" d="M 279.160156 169.953125 L 277.796875 170.640625 L 278.882812 172.847656 L 279.578125 173.742188 L 279.570312 173.894531 L 295.082031 205.46875 L 297.417969 210.21875 L 300.730469 216.953125 C 301.296875 217.011719 301.90625 216.433594 301.597656 215.796875 L 294.316406 200.910156 L 282.960938 177.691406 L 279.152344 169.953125 Z M 279.160156 169.953125 "/><path style=" stroke:none;fill-rule:nonzero;fill:#e7c785;fill-opacity:1;" d="M 278.824219 165.554688 L 278.824219 165.542969 C 278.824219 165.542969 276.996094 164.078125 276.996094 164.078125 L 276.503906 163.679688 L 264.203125 153.785156 L 261.957031 151.976562 C 261.21875 151.386719 260.574219 150.699219 260.042969 149.925781 C 257.230469 145.878906 252.582031 140.523438 247.625 133.71875 C 237.5625 120.105469 230.21875 110.75 223.941406 118.425781 C 217.722656 125.835938 216.585938 142.625 228.105469 151.679688 C 234.46875 156.910156 242.746094 159.335938 249.585938 159.902344 C 252.480469 160.144531 255.203125 161.183594 257.421875 162.910156 L 266.308594 169.824219 L 268.066406 171.1875 L 270.078125 172.753906 L 270.648438 173.203125 L 271.550781 173.90625 L 271.578125 174.054688 L 294.3125 200.914062 L 297.734375 204.957031 L 304.976562 213.507812 C 305.066406 213.609375 305.164062 213.683594 305.273438 213.726562 C 305.75 213.929688 306.34375 213.554688 306.414062 213.050781 C 306.4375 212.898438 306.410156 212.734375 306.3125 212.570312 L 305.589844 211.332031 L 278.816406 165.558594 Z M 254.65625 153.703125 C 249.285156 153.96875 239.464844 152.554688 232.425781 146.769531 L 232.324219 146.691406 C 227.109375 142.585938 226.011719 136.8125 225.832031 133.726562 C 225.5 128.324219 227.253906 124.171875 228.859375 122.261719 L 228.890625 122.222656 C 229.601562 122.617188 230.964844 123.601562 233.15625 125.988281 C 235.882812 128.960938 239.035156 133.160156 242.300781 137.574219 C 244.90625 141.144531 247.394531 144.300781 249.597656 147.078125 C 251.3125 149.246094 253.285156 151.738281 254.660156 153.707031 Z M 254.65625 153.703125 "/><path style=" stroke:none;fill-rule:nonzero;fill:#e9e6e5;fill-opacity:0.5;" d="M 306.421875 213.046875 L 270.25 170.355469 L 269.074219 171.324219 L 270.664062 173.203125 L 271.566406 173.90625 L 271.59375 174.054688 L 294.328125 200.914062 L 297.75 204.957031 L 304.992188 213.507812 C 305.082031 213.609375 305.179688 213.683594 305.285156 213.726562 C 305.761719 213.929688 306.359375 213.554688 306.429688 213.050781 Z M 306.421875 213.046875 "/><path style=" stroke:none;fill-rule:nonzero;fill:#7ba9d3;fill-opacity:1;" d="M 278.152344 162.519531 C 278.398438 162.929688 278.597656 163.359375 278.753906 163.8125 C 278.910156 164.265625 279.019531 164.734375 279.078125 165.210938 C 279.140625 165.691406 279.152344 166.175781 279.113281 166.660156 C 279.078125 167.148438 278.992188 167.628906 278.855469 168.105469 C 278.722656 168.578125 278.542969 169.039062 278.320312 169.484375 C 278.09375 169.933594 277.828125 170.355469 277.519531 170.753906 C 277.214844 171.152344 276.871094 171.519531 276.492188 171.855469 C 276.113281 172.195312 275.707031 172.492188 275.273438 172.753906 C 274.835938 173.015625 274.382812 173.234375 273.910156 173.414062 C 273.433594 173.589844 272.949219 173.71875 272.453125 173.804688 C 271.960938 173.890625 271.464844 173.925781 270.964844 173.917969 C 270.46875 173.90625 269.976562 173.847656 269.496094 173.746094 C 269.015625 173.640625 268.554688 173.488281 268.109375 173.292969 C 267.664062 173.097656 267.242188 172.859375 266.851562 172.582031 C 266.457031 172.304688 266.097656 171.988281 265.773438 171.636719 C 265.445312 171.285156 265.160156 170.902344 264.914062 170.492188 C 264.671875 170.082031 264.46875 169.652344 264.3125 169.199219 C 264.15625 168.746094 264.050781 168.277344 263.988281 167.800781 C 263.929688 167.320312 263.917969 166.835938 263.953125 166.351562 C 263.992188 165.863281 264.078125 165.382812 264.210938 164.90625 C 264.34375 164.433594 264.523438 163.972656 264.75 163.527344 C 264.972656 163.078125 265.238281 162.65625 265.546875 162.257812 C 265.855469 161.859375 266.199219 161.492188 266.578125 161.15625 C 266.953125 160.816406 267.363281 160.519531 267.796875 160.257812 C 268.230469 159.996094 268.683594 159.777344 269.160156 159.597656 C 269.632812 159.421875 270.117188 159.292969 270.613281 159.207031 C 271.109375 159.121094 271.605469 159.085938 272.101562 159.09375 C 272.601562 159.105469 273.089844 159.160156 273.570312 159.265625 C 274.050781 159.371094 274.515625 159.523438 274.960938 159.71875 C 275.40625 159.914062 275.824219 160.152344 276.21875 160.429688 C 276.609375 160.707031 276.96875 161.023438 277.296875 161.375 C 277.621094 161.726562 277.90625 162.105469 278.152344 162.519531 Z M 278.152344 162.519531 "/><path style=" stroke:none;fill-rule:nonzero;fill:#e9e6e5;fill-opacity:1;" d="M 274.492188 164.722656 C 274.710938 165.09375 274.851562 165.496094 274.90625 165.925781 C 274.960938 166.359375 274.925781 166.789062 274.804688 167.21875 C 274.683594 167.648438 274.484375 168.042969 274.207031 168.402344 C 273.929688 168.761719 273.597656 169.0625 273.203125 169.296875 C 272.8125 169.535156 272.390625 169.691406 271.945312 169.765625 C 271.5 169.84375 271.058594 169.835938 270.625 169.738281 C 270.191406 169.644531 269.796875 169.472656 269.441406 169.21875 C 269.085938 168.96875 268.796875 168.65625 268.578125 168.289062 C 268.355469 167.917969 268.21875 167.515625 268.164062 167.082031 C 268.109375 166.652344 268.140625 166.222656 268.261719 165.792969 C 268.382812 165.363281 268.582031 164.96875 268.859375 164.609375 C 269.136719 164.25 269.472656 163.949219 269.863281 163.714844 C 270.257812 163.476562 270.675781 163.320312 271.125 163.246094 C 271.570312 163.167969 272.011719 163.175781 272.445312 163.273438 C 272.878906 163.367188 273.273438 163.539062 273.628906 163.792969 C 273.980469 164.042969 274.269531 164.355469 274.492188 164.722656 Z M 274.492188 164.722656 "/><path style=" stroke:none;fill-rule:nonzero;fill:#e9e6e5;fill-opacity:0.45;" d="M 350.296875 96.988281 L 353.214844 97.796875 C 357.28125 98.921875 359.675781 103.15625 358.550781 107.242188 L 352.8125 128.074219 L 335.152344 123.175781 L 340.886719 102.339844 C 342.011719 98.261719 346.226562 95.859375 350.296875 96.988281 Z M 350.296875 96.988281 "/><g clip-rule="nonzero" clip-path="url(#7aa87d4472)"><path style=" stroke:none;fill-rule:nonzero;fill:#e7c785;fill-opacity:1;" d="M 362.210938 104.851562 L 362.5625 104.949219 C 362.804688 105.015625 362.988281 105.160156 363.113281 105.378906 C 363.238281 105.597656 363.265625 105.832031 363.199219 106.074219 L 354.0625 139.25 C 353.996094 139.492188 353.851562 139.675781 353.632812 139.800781 C 353.414062 139.925781 353.183594 139.953125 352.941406 139.886719 L 352.59375 139.789062 C 352.351562 139.722656 352.167969 139.578125 352.042969 139.359375 C 351.917969 139.140625 351.890625 138.910156 351.957031 138.664062 L 361.09375 105.488281 C 361.160156 105.246094 361.304688 105.0625 361.523438 104.9375 C 361.738281 104.8125 361.96875 104.785156 362.210938 104.851562 Z M 362.210938 104.851562 "/></g><path style=" stroke:none;fill-rule:nonzero;fill:#e7c785;fill-opacity:1;" d="M 358.839844 105.433594 L 360.945312 106.019531 L 359.683594 110.605469 L 357.578125 110.023438 Z M 358.839844 105.433594 "/><path style=" stroke:none;fill-rule:nonzero;fill:#7ba9d3;fill-opacity:1;" d="M 351.621094 146.371094 L 320.953125 237.480469 C 320.058594 240.148438 316.804688 241.539062 313.570312 240.644531 L 310.832031 239.882812 C 307.597656 238.984375 305.515625 236.117188 306.113281 233.363281 L 326.425781 139.378906 C 326.988281 136.75 329.019531 134.796875 331.664062 133.914062 C 333.539062 133.292969 335.722656 133.207031 337.914062 133.816406 L 344.613281 135.675781 C 346.804688 136.285156 348.644531 137.484375 349.929688 138.988281 C 351.75 141.105469 352.480469 143.824219 351.628906 146.371094 Z M 351.621094 146.371094 "/><path style=" stroke:none;fill-rule:nonzero;fill:#e7c785;fill-opacity:1;" d="M 353.246094 130.730469 L 351.210938 138.121094 C 351.066406 138.652344 350.535156 138.984375 349.925781 138.988281 C 349.769531 138.988281 349.617188 138.96875 349.457031 138.921875 L 332.089844 134.109375 C 331.9375 134.066406 331.78125 134 331.65625 133.921875 C 331.132812 133.601562 330.84375 133.042969 330.988281 132.515625 L 333.023438 125.125 C 333.367188 123.871094 334.667969 123.105469 336.132812 123.175781 C 336.417969 123.1875 336.710938 123.234375 337 123.316406 L 350.757812 127.132812 C 351.046875 127.210938 351.320312 127.320312 351.570312 127.457031 C 352.859375 128.144531 353.582031 129.480469 353.242188 130.730469 Z M 353.246094 130.730469 "/><path style=" stroke:none;fill-rule:nonzero;fill:#e9e6e5;fill-opacity:1;" d="M 345.660156 115.457031 L 348.578125 104.871094 L 350.257812 105.335938 L 347.34375 115.925781 Z M 345.660156 115.457031 "/><path style=" stroke:none;fill-rule:nonzero;fill:#e9e6e5;fill-opacity:1;" d="M 352.3125 124.789062 L 351.507812 127.71875 L 336.066406 123.433594 L 336.875 120.503906 L 337.0625 120.554688 L 344.714844 114.058594 L 348.882812 115.214844 L 352.125 124.738281 Z M 352.3125 124.789062 "/><path style=" stroke:none;fill-rule:nonzero;fill:#e7c785;fill-opacity:1;" d="M 333.835938 176.453125 C 328.320312 196.484375 322.242188 212.28125 320.269531 211.730469 C 318.289062 211.183594 321.160156 194.496094 326.675781 174.46875 C 332.191406 154.4375 334.226562 153.308594 336.207031 153.855469 C 338.1875 154.40625 339.351562 156.421875 333.835938 176.453125 Z M 333.835938 176.453125 "/><path style=" stroke:none;fill-rule:nonzero;fill:#000000;fill-opacity:0.15;" d="M 349.40625 105.101562 L 312.183594 240.253906 L 310.84375 239.882812 C 307.601562 238.984375 305.519531 236.109375 306.113281 233.351562 L 326.417969 139.378906 C 326.984375 136.75 329.015625 134.796875 331.660156 133.914062 C 331.136719 133.597656 330.847656 133.039062 330.992188 132.511719 L 333.027344 125.117188 C 333.375 123.867188 334.671875 123.097656 336.136719 123.167969 L 336.871094 120.5 L 337.054688 120.550781 L 344.710938 114.054688 L 345.953125 114.402344 L 348.574219 104.871094 L 349.402344 105.101562 Z M 349.40625 105.101562 "/><path style=" stroke:none;fill-rule:nonzero;fill:#b2d2c9;fill-opacity:1;" d="M 321.613281 113.367188 L 326.699219 221.9375 C 326.816406 224.433594 325.234375 226.527344 323.171875 226.628906 L 313.183594 227.101562 C 311.121094 227.199219 309.351562 225.261719 309.234375 222.761719 L 304.148438 114.191406 Z M 321.613281 113.367188 "/><path style=" stroke:none;fill-rule:nonzero;fill:#7ba9d3;fill-opacity:1;" d="M 326.402344 215.589844 L 326.699219 221.9375 C 326.816406 224.433594 325.234375 226.527344 323.171875 226.628906 L 313.183594 227.101562 C 311.121094 227.199219 309.351562 225.261719 309.234375 222.761719 L 308.9375 216.414062 Z M 326.402344 215.589844 "/><path style=" stroke:none;fill-rule:nonzero;fill:#e9e6e5;fill-opacity:1;" d="M 321.613281 113.367188 L 304.148438 114.191406 L 309.976562 95.835938 L 311.773438 90.167969 L 311.804688 90.253906 L 314.09375 95.640625 Z M 321.613281 113.367188 "/><path style=" stroke:none;fill-rule:nonzero;fill:#000000;fill-opacity:1;" d="M 314.09375 95.640625 C 313.542969 96.160156 312.855469 96.480469 312.105469 96.527344 L 312.074219 96.527344 C 311.308594 96.5625 310.582031 96.304688 309.976562 95.835938 L 311.773438 90.171875 L 311.8125 90.257812 L 314.09375 95.644531 Z M 314.09375 95.640625 "/><path style=" stroke:none;fill-rule:nonzero;fill:#000000;fill-opacity:0.15;" d="M 311.804688 90.253906 L 318.210938 226.863281 L 313.183594 227.101562 C 311.121094 227.199219 309.351562 225.261719 309.234375 222.761719 L 304.148438 114.191406 L 309.976562 95.835938 L 311.773438 90.171875 L 311.8125 90.257812 Z M 311.804688 90.253906 "/><g clip-rule="nonzero" clip-path="url(#4815067e37)"><path style=" stroke:none;fill-rule:nonzero;fill:#7ba9d3;fill-opacity:1;" d="M 346.445312 182.441406 L 343.722656 196.785156 L 337.746094 228.203125 L 332.785156 254.308594 C 331.914062 258.886719 325.449219 262.351562 317.761719 262.351562 L 291.554688 262.351562 C 283.867188 262.34375 277.402344 258.878906 276.535156 254.296875 L 271.582031 228.191406 L 265.625 196.773438 L 262.902344 182.429688 L 346.445312 182.449219 Z M 346.445312 182.441406 "/></g><path style=" stroke:none;fill-rule:nonzero;fill:#e9e6e5;fill-opacity:1;" d="M 343.722656 196.777344 L 337.746094 228.195312 L 271.578125 228.1875 L 265.617188 196.765625 Z M 343.722656 196.777344 "/><g clip-rule="nonzero" clip-path="url(#125cd77c3c)"><path style=" stroke:none;fill-rule:nonzero;fill:#000000;fill-opacity:0.15;" d="M 305.65625 182.429688 L 305.640625 262.34375 L 291.554688 262.34375 C 283.867188 262.34375 277.402344 258.878906 276.535156 254.292969 L 271.582031 228.1875 L 265.625 196.769531 L 262.902344 182.425781 L 305.65625 182.4375 Z M 305.65625 182.429688 "/></g><g style="fill:#462009;fill-opacity:0.1882;"><g transform="translate(10.941103, 307.105256)"><path style="stroke:none" d="M 83.21875 -100.0625 C 83.800781 -99.96875 84.242188 -99.640625 84.546875 -99.078125 C 84.703125 -98.773438 84.71875 -98.507812 84.59375 -98.28125 C 84.46875 -98.050781 84.300781 -97.8125 84.09375 -97.5625 C 82.257812 -95.882812 80.382812 -94.171875 78.46875 -92.421875 C 76.625 -90.671875 74.769531 -88.941406 72.90625 -87.234375 C 68.113281 -82.734375 63.316406 -78.234375 58.515625 -73.734375 C 49.109375 -64.984375 39.707031 -56.207031 30.3125 -47.40625 C 25.519531 -42.988281 21 -38.28125 16.75 -33.28125 C 15.25 -31.53125 13.835938 -29.675781 12.515625 -27.71875 C 11.628906 -26.425781 10.914062 -25.03125 10.375 -23.53125 C 9.414062 -21.03125 10.003906 -18.953125 12.140625 -17.296875 C 13.546875 -16.296875 15.023438 -15.421875 16.578125 -14.671875 C 18.867188 -13.523438 21.21875 -12.546875 23.625 -11.734375 C 26.039062 -10.929688 28.460938 -10.191406 30.890625 -9.515625 C 39.097656 -7.109375 47.304688 -4.734375 55.515625 -2.390625 C 56.222656 -2.179688 56.929688 -1.972656 57.640625 -1.765625 C 57.773438 -1.722656 57.941406 -1.679688 58.140625 -1.640625 C 58.691406 -1.472656 59.21875 -1.273438 59.71875 -1.046875 C 60.21875 -0.828125 60.671875 -0.488281 61.078125 -0.03125 C 61.328125 0.257812 61.398438 0.59375 61.296875 0.96875 C 61.191406 1.34375 60.992188 1.597656 60.703125 1.734375 C 59.660156 2.148438 58.660156 2.128906 57.703125 1.671875 C 56.410156 1.035156 55.054688 0.539062 53.640625 0.1875 C 52.234375 -0.164062 50.8125 -0.488281 49.375 -0.78125 C 48.125 -1.03125 46.875 -1.335938 45.625 -1.703125 C 43.675781 -2.203125 41.722656 -2.679688 39.765625 -3.140625 C 34.515625 -4.429688 29.304688 -5.875 24.140625 -7.46875 C 19.847656 -8.757812 15.65625 -10.335938 11.5625 -12.203125 C 10.40625 -12.753906 9.675781 -12.914062 9.375 -12.6875 C 9.082031 -12.457031 8.9375 -11.695312 8.9375 -10.40625 C 8.882812 -9.65625 8.859375 -8.925781 8.859375 -8.21875 C 8.910156 -7.925781 8.9375 -7.628906 8.9375 -7.328125 C 8.9375 -3.367188 8.9375 0.582031 8.9375 4.53125 C 8.9375 14.832031 8.910156 25.109375 8.859375 35.359375 C 8.859375 37.816406 8.757812 40.273438 8.5625 42.734375 C 8.507812 43.867188 8.453125 45.039062 8.390625 46.25 C 8.390625 46.695312 8.316406 47.109375 8.171875 47.484375 C 8.023438 47.859375 7.722656 48.148438 7.265625 48.359375 C 6.378906 48.742188 5.609375 48.757812 4.953125 48.40625 C 4.304688 48.050781 3.925781 47.429688 3.8125 46.546875 C 3.769531 45.753906 3.726562 44.984375 3.6875 44.234375 C 3.4375 40.523438 3.285156 36.796875 3.234375 33.046875 C 3.234375 19.335938 3.234375 5.628906 3.234375 -8.078125 C 3.234375 -13.128906 3.234375 -18.15625 3.234375 -23.15625 C 3.234375 -23.15625 3.257812 -23.15625 3.3125 -23.15625 C 3.3125 -28.207031 3.3125 -33.253906 3.3125 -38.296875 C 3.257812 -53.253906 3.257812 -68.238281 3.3125 -83.25 C 3.3125 -86.613281 3.410156 -89.941406 3.609375 -93.234375 C 3.660156 -94.617188 4.378906 -95.367188 5.765625 -95.484375 C 7.378906 -95.691406 8.285156 -95.007812 8.484375 -93.4375 C 8.734375 -91.4375 8.859375 -89.414062 8.859375 -87.375 C 8.859375 -77.820312 8.859375 -68.269531 8.859375 -58.71875 C 8.910156 -51.71875 8.9375 -44.738281 8.9375 -37.78125 C 8.9375 -36.488281 9.003906 -35.195312 9.140625 -33.90625 C 9.140625 -33.832031 9.191406 -33.769531 9.296875 -33.71875 C 9.398438 -33.675781 9.5 -33.632812 9.59375 -33.59375 C 9.695312 -33.550781 9.773438 -33.550781 9.828125 -33.59375 C 9.984375 -33.59375 10.113281 -33.644531 10.21875 -33.75 C 10.320312 -33.851562 10.414062 -33.945312 10.5 -34.03125 C 13.84375 -37.988281 17.351562 -41.75 21.03125 -45.3125 C 24.71875 -48.882812 28.4375 -52.421875 32.1875 -55.921875 C 32.4375 -56.128906 32.6875 -56.359375 32.9375 -56.609375 C 44.144531 -67.066406 55.398438 -77.46875 66.703125 -87.8125 C 69.203125 -90.132812 71.679688 -92.441406 74.140625 -94.734375 C 75.773438 -96.191406 77.421875 -97.613281 79.078125 -99 C 80.285156 -99.957031 81.664062 -100.3125 83.21875 -100.0625 Z M 83.21875 -100.0625 "/></g></g><g style="fill:#462009;fill-opacity:0.1882;"><g transform="translate(76.074337, 307.105256)"><path style="stroke:none" d="M 17.6875 -13.84375 C 16.988281 -12.382812 15.789062 -10.769531 14.09375 -9 C 12.40625 -7.226562 10.484375 -6.101562 8.328125 -5.625 C 6.179688 -5.144531 4.132812 -5.882812 2.1875 -7.84375 C 1.4375 -8.707031 0.882812 -9.703125 0.53125 -10.828125 C 0.175781 -11.953125 0.046875 -13.0625 0.140625 -14.15625 C 0.140625 -14.445312 0.140625 -14.820312 0.140625 -15.28125 C 0.140625 -16.4375 0.1875 -17.773438 0.28125 -19.296875 C 0.382812 -20.828125 0.613281 -22.203125 0.96875 -23.421875 C 1.320312 -24.648438 1.875 -25.390625 2.625 -25.640625 C 4.78125 -26.191406 5.953125 -25.441406 6.140625 -23.390625 C 6.140625 -22.734375 6.117188 -22.078125 6.078125 -21.421875 C 6.023438 -21.078125 6 -20.757812 6 -20.46875 C 5.957031 -19.507812 5.910156 -18.550781 5.859375 -17.59375 C 5.859375 -16.84375 5.828125 -16.09375 5.765625 -15.34375 C 5.710938 -12.050781 6.445312 -10.09375 7.96875 -9.46875 C 9.5 -8.84375 11.238281 -9.503906 13.1875 -11.453125 C 15.144531 -13.410156 16.425781 -15.035156 17.03125 -16.328125 C 17.632812 -17.628906 18.070312 -17.90625 18.34375 -17.15625 C 18.613281 -16.40625 18.394531 -15.300781 17.6875 -13.84375 Z M 5.6875 -32.671875 C 5.394531 -32.421875 5.035156 -32.257812 4.609375 -32.1875 C 4.191406 -32.125 3.828125 -32.160156 3.515625 -32.296875 C 3.265625 -32.503906 3.101562 -32.769531 3.03125 -33.09375 C 2.96875 -33.425781 2.9375 -33.820312 2.9375 -34.28125 C 2.9375 -34.363281 2.957031 -34.453125 3 -34.546875 C 3.039062 -34.953125 3.144531 -35.363281 3.3125 -35.78125 C 3.757812 -36.863281 4.703125 -37.363281 6.140625 -37.28125 C 6.640625 -37.207031 7.03125 -37 7.3125 -36.65625 C 7.59375 -36.320312 7.65625 -35.925781 7.5 -35.46875 C 7.15625 -34.351562 6.550781 -33.421875 5.6875 -32.671875 Z M 5.6875 -32.671875 "/></g></g><g style="fill:#462009;fill-opacity:0.1882;"><g transform="translate(92.818021, 307.105256)"><path style="stroke:none" d="M 53.515625 -16.640625 C 53.710938 -17.023438 54.019531 -17.226562 54.4375 -17.25 C 54.863281 -17.28125 55.222656 -17.019531 55.515625 -16.46875 C 55.628906 -16.332031 55.519531 -15.953125 55.1875 -15.328125 C 54.863281 -14.703125 54.425781 -13.992188 53.875 -13.203125 C 53.332031 -12.421875 52.8125 -11.707031 52.3125 -11.0625 C 51.8125 -10.414062 51.457031 -9.988281 51.25 -9.78125 C 49 -7.28125 46.738281 -5.445312 44.46875 -4.28125 C 42.195312 -3.113281 39.726562 -2.863281 37.0625 -3.53125 C 34.40625 -4.195312 31.429688 -6.085938 28.140625 -9.203125 C 27.640625 -9.753906 27.140625 -10.300781 26.640625 -10.84375 C 26.503906 -11 26.378906 -11.144531 26.265625 -11.28125 C 25.710938 -11.894531 25.109375 -11.976562 24.453125 -11.53125 C 23.765625 -11.03125 23.070312 -10.53125 22.375 -10.03125 C 21.757812 -9.570312 21.132812 -9.148438 20.5 -8.765625 C 18.382812 -7.304688 16.15625 -6.078125 13.8125 -5.078125 C 11.3125 -3.960938 8.6875 -3.53125 5.9375 -3.78125 C 1.632812 -4.28125 -0.59375 -6.65625 -0.75 -10.90625 C -0.789062 -13.914062 -0.148438 -16.609375 1.171875 -18.984375 C 2.503906 -21.359375 4.359375 -23.109375 6.734375 -24.234375 C 9.109375 -25.359375 11.84375 -25.578125 14.9375 -24.890625 C 15.28125 -24.828125 15.734375 -24.726562 16.296875 -24.59375 C 16.640625 -24.476562 17.0625 -24.375 17.5625 -24.28125 C 17.269531 -24.988281 17 -25.613281 16.75 -26.15625 C 16.289062 -27.0625 15.890625 -27.890625 15.546875 -28.640625 C 13.484375 -32.898438 11.800781 -37.757812 10.5 -43.21875 C 9.207031 -48.6875 8.570312 -54.296875 8.59375 -60.046875 C 8.613281 -65.804688 9.570312 -71.160156 11.46875 -76.109375 C 13.375 -81.066406 16.53125 -85.148438 20.9375 -88.359375 C 23.738281 -90.242188 26.625 -91.265625 29.59375 -91.421875 C 32.570312 -91.585938 35.382812 -90.941406 38.03125 -89.484375 C 40.6875 -88.035156 42.84375 -85.851562 44.5 -82.9375 C 46.632812 -78.9375 47.953125 -74.71875 48.453125 -70.28125 C 49.367188 -63.125 49.222656 -56.441406 48.015625 -50.234375 C 46.804688 -44.023438 44.679688 -38.15625 41.640625 -32.625 C 38.597656 -27.101562 34.722656 -21.742188 30.015625 -16.546875 C 29.554688 -16.046875 29.316406 -15.644531 29.296875 -15.34375 C 29.273438 -15.050781 29.488281 -14.628906 29.9375 -14.078125 C 30.894531 -12.828125 31.9375 -11.609375 33.0625 -10.421875 C 34.1875 -9.242188 35.441406 -8.257812 36.828125 -7.46875 C 38.785156 -6.625 40.878906 -6.609375 43.109375 -7.421875 C 45.335938 -8.242188 47.398438 -9.519531 49.296875 -11.25 C 51.191406 -12.976562 52.597656 -14.773438 53.515625 -16.640625 Z M 20.046875 -13.640625 C 20.640625 -14.140625 20.6875 -14.707031 20.1875 -15.34375 C 19.894531 -15.707031 19.597656 -16.082031 19.296875 -16.46875 C 18.484375 -17.46875 17.550781 -18.492188 16.5 -19.546875 C 15.457031 -20.609375 14.375 -21.410156 13.25 -21.953125 C 12.125 -22.503906 10.984375 -22.550781 9.828125 -22.09375 C 8.234375 -21.34375 6.921875 -20.019531 5.890625 -18.125 C 4.867188 -16.226562 4.265625 -14.28125 4.078125 -12.28125 C 3.898438 -10.28125 4.289062 -8.753906 5.25 -7.703125 C 6.207031 -6.660156 7.832031 -6.5625 10.125 -7.40625 C 13.738281 -8.988281 17.046875 -11.066406 20.046875 -13.640625 Z M 27.625 -21.046875 C 32.414062 -26.703125 36 -32.269531 38.375 -37.75 C 40.757812 -43.226562 42.367188 -49.640625 43.203125 -56.984375 C 43.453125 -58.785156 43.566406 -61.140625 43.546875 -64.046875 C 43.523438 -66.953125 43.265625 -69.988281 42.765625 -73.15625 C 42.265625 -76.332031 41.363281 -79.222656 40.0625 -81.828125 C 38.769531 -84.429688 36.957031 -86.304688 34.625 -87.453125 C 32.300781 -88.609375 29.320312 -88.601562 25.6875 -87.4375 C 21.675781 -85.09375 18.703125 -81.984375 16.765625 -78.109375 C 14.835938 -74.234375 13.738281 -69.921875 13.46875 -65.171875 C 13.195312 -60.421875 13.507812 -55.566406 14.40625 -50.609375 C 15.300781 -45.648438 16.550781 -40.945312 18.15625 -36.5 C 19.757812 -32.0625 21.484375 -28.191406 23.328125 -24.890625 C 23.535156 -24.484375 23.738281 -24.078125 23.9375 -23.671875 C 24.488281 -22.328125 25.285156 -21.109375 26.328125 -20.015625 C 26.484375 -20.148438 26.644531 -20.273438 26.8125 -20.390625 C 27.101562 -20.578125 27.375 -20.796875 27.625 -21.046875 Z M 27.625 -21.046875 "/></g></g><g style="fill:#462009;fill-opacity:0.1882;"><g transform="translate(146.015847, 307.105256)"><path style="stroke:none" d="M 53.515625 -16.640625 C 53.710938 -17.023438 54.019531 -17.226562 54.4375 -17.25 C 54.863281 -17.28125 55.222656 -17.019531 55.515625 -16.46875 C 55.628906 -16.332031 55.519531 -15.953125 55.1875 -15.328125 C 54.863281 -14.703125 54.425781 -13.992188 53.875 -13.203125 C 53.332031 -12.421875 52.8125 -11.707031 52.3125 -11.0625 C 51.8125 -10.414062 51.457031 -9.988281 51.25 -9.78125 C 49 -7.28125 46.738281 -5.445312 44.46875 -4.28125 C 42.195312 -3.113281 39.726562 -2.863281 37.0625 -3.53125 C 34.40625 -4.195312 31.429688 -6.085938 28.140625 -9.203125 C 27.640625 -9.753906 27.140625 -10.300781 26.640625 -10.84375 C 26.503906 -11 26.378906 -11.144531 26.265625 -11.28125 C 25.710938 -11.894531 25.109375 -11.976562 24.453125 -11.53125 C 23.765625 -11.03125 23.070312 -10.53125 22.375 -10.03125 C 21.757812 -9.570312 21.132812 -9.148438 20.5 -8.765625 C 18.382812 -7.304688 16.15625 -6.078125 13.8125 -5.078125 C 11.3125 -3.960938 8.6875 -3.53125 5.9375 -3.78125 C 1.632812 -4.28125 -0.59375 -6.65625 -0.75 -10.90625 C -0.789062 -13.914062 -0.148438 -16.609375 1.171875 -18.984375 C 2.503906 -21.359375 4.359375 -23.109375 6.734375 -24.234375 C 9.109375 -25.359375 11.84375 -25.578125 14.9375 -24.890625 C 15.28125 -24.828125 15.734375 -24.726562 16.296875 -24.59375 C 16.640625 -24.476562 17.0625 -24.375 17.5625 -24.28125 C 17.269531 -24.988281 17 -25.613281 16.75 -26.15625 C 16.289062 -27.0625 15.890625 -27.890625 15.546875 -28.640625 C 13.484375 -32.898438 11.800781 -37.757812 10.5 -43.21875 C 9.207031 -48.6875 8.570312 -54.296875 8.59375 -60.046875 C 8.613281 -65.804688 9.570312 -71.160156 11.46875 -76.109375 C 13.375 -81.066406 16.53125 -85.148438 20.9375 -88.359375 C 23.738281 -90.242188 26.625 -91.265625 29.59375 -91.421875 C 32.570312 -91.585938 35.382812 -90.941406 38.03125 -89.484375 C 40.6875 -88.035156 42.84375 -85.851562 44.5 -82.9375 C 46.632812 -78.9375 47.953125 -74.71875 48.453125 -70.28125 C 49.367188 -63.125 49.222656 -56.441406 48.015625 -50.234375 C 46.804688 -44.023438 44.679688 -38.15625 41.640625 -32.625 C 38.597656 -27.101562 34.722656 -21.742188 30.015625 -16.546875 C 29.554688 -16.046875 29.316406 -15.644531 29.296875 -15.34375 C 29.273438 -15.050781 29.488281 -14.628906 29.9375 -14.078125 C 30.894531 -12.828125 31.9375 -11.609375 33.0625 -10.421875 C 34.1875 -9.242188 35.441406 -8.257812 36.828125 -7.46875 C 38.785156 -6.625 40.878906 -6.609375 43.109375 -7.421875 C 45.335938 -8.242188 47.398438 -9.519531 49.296875 -11.25 C 51.191406 -12.976562 52.597656 -14.773438 53.515625 -16.640625 Z M 20.046875 -13.640625 C 20.640625 -14.140625 20.6875 -14.707031 20.1875 -15.34375 C 19.894531 -15.707031 19.597656 -16.082031 19.296875 -16.46875 C 18.484375 -17.46875 17.550781 -18.492188 16.5 -19.546875 C 15.457031 -20.609375 14.375 -21.410156 13.25 -21.953125 C 12.125 -22.503906 10.984375 -22.550781 9.828125 -22.09375 C 8.234375 -21.34375 6.921875 -20.019531 5.890625 -18.125 C 4.867188 -16.226562 4.265625 -14.28125 4.078125 -12.28125 C 3.898438 -10.28125 4.289062 -8.753906 5.25 -7.703125 C 6.207031 -6.660156 7.832031 -6.5625 10.125 -7.40625 C 13.738281 -8.988281 17.046875 -11.066406 20.046875 -13.640625 Z M 27.625 -21.046875 C 32.414062 -26.703125 36 -32.269531 38.375 -37.75 C 40.757812 -43.226562 42.367188 -49.640625 43.203125 -56.984375 C 43.453125 -58.785156 43.566406 -61.140625 43.546875 -64.046875 C 43.523438 -66.953125 43.265625 -69.988281 42.765625 -73.15625 C 42.265625 -76.332031 41.363281 -79.222656 40.0625 -81.828125 C 38.769531 -84.429688 36.957031 -86.304688 34.625 -87.453125 C 32.300781 -88.609375 29.320312 -88.601562 25.6875 -87.4375 C 21.675781 -85.09375 18.703125 -81.984375 16.765625 -78.109375 C 14.835938 -74.234375 13.738281 -69.921875 13.46875 -65.171875 C 13.195312 -60.421875 13.507812 -55.566406 14.40625 -50.609375 C 15.300781 -45.648438 16.550781 -40.945312 18.15625 -36.5 C 19.757812 -32.0625 21.484375 -28.191406 23.328125 -24.890625 C 23.535156 -24.484375 23.738281 -24.078125 23.9375 -23.671875 C 24.488281 -22.328125 25.285156 -21.109375 26.328125 -20.015625 C 26.484375 -20.148438 26.644531 -20.273438 26.8125 -20.390625 C 27.101562 -20.578125 27.375 -20.796875 27.625 -21.046875 Z M 27.625 -21.046875 "/></g></g><g style="fill:#462009;fill-opacity:0.1882;"><g transform="translate(199.213672, 307.105256)"><path style="stroke:none" d="M 26.1875 -18.65625 C 26.53125 -19 26.710938 -18.582031 26.734375 -17.40625 C 26.753906 -16.238281 25.691406 -14.601562 23.546875 -12.5 C 21.398438 -10.394531 19.175781 -9.398438 16.875 -9.515625 C 16.375 -9.554688 15.945312 -9.515625 15.59375 -9.390625 C 15.25 -9.265625 14.953125 -8.976562 14.703125 -8.53125 C 14.453125 -8.113281 14.15625 -7.738281 13.8125 -7.40625 C 13.8125 -7.40625 13.789062 -7.378906 13.75 -7.328125 C 12.332031 -5.828125 10.675781 -4.835938 8.78125 -4.359375 C 6.882812 -3.890625 5.082031 -4.039062 3.375 -4.8125 C 1.664062 -5.582031 0.4375 -7.046875 -0.3125 -9.203125 C -0.851562 -11.160156 -0.894531 -13.109375 -0.4375 -15.046875 C -0.0507812 -16.742188 0.570312 -18.34375 1.4375 -19.84375 C 2.476562 -21.84375 3.832031 -23.257812 5.5 -24.09375 C 7.175781 -24.925781 9.070312 -25.382812 11.1875 -25.46875 C 14.320312 -25.632812 16.300781 -24.160156 17.125 -21.046875 C 17.625 -19.242188 17.75 -17.421875 17.5 -15.578125 C 17.425781 -15.171875 17.34375 -14.742188 17.25 -14.296875 C 17.164062 -13.992188 17.085938 -13.695312 17.015625 -13.40625 C 16.921875 -12.40625 17.351562 -11.945312 18.3125 -12.03125 C 20.945312 -12.488281 23.570312 -14.695312 26.1875 -18.65625 Z M 7.640625 -7.03125 C 9.253906 -7.78125 10.378906 -9.050781 11.015625 -10.84375 C 8.328125 -12.550781 6.53125 -15.007812 5.625 -18.21875 C 4.78125 -16.707031 4.265625 -14.953125 4.078125 -12.953125 C 3.898438 -10.953125 4.101562 -9.296875 4.6875 -7.984375 C 5.269531 -6.679688 6.253906 -6.363281 7.640625 -7.03125 Z M 12.25 -14.390625 C 12.675781 -15.023438 12.925781 -15.804688 13 -16.734375 C 13.082031 -17.671875 13.039062 -18.597656 12.875 -19.515625 C 12.707031 -20.441406 12.46875 -21.164062 12.15625 -21.6875 C 11.851562 -22.207031 11.53125 -22.367188 11.1875 -22.171875 C 10.570312 -21.617188 10.226562 -20.832031 10.15625 -19.8125 C 10.09375 -18.789062 10.25 -17.765625 10.625 -16.734375 C 11 -15.710938 11.539062 -14.929688 12.25 -14.390625 Z M 12.25 -14.390625 "/></g></g><g style="fill:#462009;fill-opacity:0.1882;"><g transform="translate(224.619054, 307.105256)"><path style="stroke:none" d="M 33.625 -16.40625 C 34.3125 -17 34.78125 -17.28125 35.03125 -17.25 C 35.28125 -17.226562 35.367188 -17.039062 35.296875 -16.6875 C 35.222656 -16.34375 35.039062 -15.953125 34.75 -15.515625 C 34 -14.398438 33.039062 -13.253906 31.875 -12.078125 C 30.71875 -10.910156 29.890625 -10.101562 29.390625 -9.65625 C 26.003906 -6.601562 22.957031 -4.953125 20.25 -4.703125 C 17.550781 -4.453125 15.203125 -5.015625 13.203125 -6.390625 C 11.203125 -7.765625 9.585938 -9.335938 8.359375 -11.109375 C 7.128906 -12.890625 6.320312 -14.28125 5.9375 -15.28125 C 5.769531 -14.976562 5.664062 -14.328125 5.625 -13.328125 C 5.582031 -12.328125 5.5625 -11.144531 5.5625 -9.78125 C 5.507812 -8.445312 5.453125 -7.128906 5.390625 -5.828125 C 5.335938 -4.535156 5.210938 -3.476562 5.015625 -2.65625 C 4.710938 -1.0625 3.742188 -0.367188 2.109375 -0.578125 C 0.953125 -0.710938 0.296875 -1.316406 0.140625 -2.390625 C 0.046875 -3.066406 0 -3.757812 0 -4.46875 C 0 -5.96875 0 -7.445312 0 -8.90625 C 0.0390625 -14.90625 0.117188 -20.882812 0.234375 -26.84375 C 0.234375 -29.726562 0.367188 -34.296875 0.640625 -40.546875 C 0.921875 -46.796875 1.375 -53.410156 2 -60.390625 C 2.625 -67.367188 3.457031 -73.382812 4.5 -78.4375 C 4.90625 -80.4375 5.582031 -82.328125 6.53125 -84.109375 C 7.476562 -85.898438 8.953125 -87.046875 10.953125 -87.546875 C 11.816406 -87.722656 12.65625 -87.5625 13.46875 -87.0625 C 14.289062 -86.5625 15.03125 -85.5625 15.6875 -84.0625 C 16.320312 -82.46875 16.675781 -80.820312 16.75 -79.125 C 16.882812 -75.320312 16.425781 -70.519531 15.375 -64.71875 C 14.332031 -58.925781 13.03125 -52.90625 11.46875 -46.65625 C 9.914062 -40.40625 8.445312 -34.695312 7.0625 -29.53125 C 6.257812 -26.625 5.578125 -24.125 5.015625 -22.03125 C 5.628906 -23.125 6.445312 -24.359375 7.46875 -25.734375 C 8.488281 -27.109375 9.476562 -28.203125 10.4375 -29.015625 C 12.6875 -30.816406 15.253906 -31.441406 18.140625 -30.890625 C 21.347656 -30.191406 22.328125 -28.363281 21.078125 -25.40625 C 19.734375 -22.8125 18.070312 -20.828125 16.09375 -19.453125 C 14.113281 -18.078125 12.207031 -17.015625 10.375 -16.265625 C 12.300781 -13.554688 14.492188 -11.394531 16.953125 -9.78125 C 18.703125 -8.78125 20.628906 -8.617188 22.734375 -9.296875 C 24.835938 -9.984375 26.863281 -11.035156 28.8125 -12.453125 C 30.769531 -13.878906 32.375 -15.195312 33.625 -16.40625 Z M 8.859375 -76.1875 C 8.003906 -70.550781 7.238281 -63.441406 6.5625 -54.859375 C 5.894531 -46.273438 5.4375 -39.207031 5.1875 -33.65625 C 6.03125 -35.90625 7 -39.675781 8.09375 -44.96875 C 9.195312 -50.269531 10.226562 -55.765625 11.1875 -61.453125 C 12.144531 -67.140625 12.816406 -71.707031 13.203125 -75.15625 C 13.609375 -78.957031 13.550781 -81.429688 13.03125 -82.578125 C 12.507812 -83.722656 11.832031 -83.734375 11 -82.609375 C 10.164062 -81.484375 9.453125 -79.34375 8.859375 -76.1875 Z M 6.453125 -18.890625 C 6.648438 -18.773438 7.207031 -18.867188 8.125 -19.171875 C 9.050781 -19.484375 10.078125 -19.910156 11.203125 -20.453125 C 12.328125 -21.003906 13.242188 -21.65625 13.953125 -22.40625 C 15.648438 -24.3125 16.414062 -25.609375 16.25 -26.296875 C 16.082031 -26.992188 15.46875 -27.242188 14.40625 -27.046875 C 13.351562 -26.859375 12.328125 -26.332031 11.328125 -25.46875 C 10.179688 -24.382812 9.09375 -23.1875 8.0625 -21.875 C 7.03125 -20.570312 6.492188 -19.578125 6.453125 -18.890625 Z M 6.453125 -18.890625 "/></g></g><g style="fill:#462009;fill-opacity:0.1882;"><g transform="translate(257.697188, 307.105256)"><path style="stroke:none" d="M 32.875 -16.46875 C 33.375 -16.769531 33.863281 -17 34.34375 -17.15625 C 34.820312 -17.3125 35.132812 -17.296875 35.28125 -17.109375 C 35.425781 -16.929688 35.226562 -16.523438 34.6875 -15.890625 C 32.976562 -13.929688 30.9375 -12.140625 28.5625 -10.515625 C 26.1875 -8.890625 23.75 -7.519531 21.25 -6.40625 C 19.289062 -5.519531 17.222656 -4.816406 15.046875 -4.296875 C 12.878906 -3.773438 10.734375 -3.660156 8.609375 -3.953125 C 6.484375 -4.253906 4.546875 -5.195312 2.796875 -6.78125 C 0.140625 -9.238281 -0.960938 -12.242188 -0.515625 -15.796875 C -0.128906 -18.609375 0.960938 -21 2.765625 -22.96875 C 4.578125 -24.9375 6.859375 -26.269531 9.609375 -26.96875 C 11.910156 -27.46875 14.207031 -27.523438 16.5 -27.140625 C 17.550781 -26.984375 18.507812 -26.632812 19.375 -26.09375 C 20.164062 -25.476562 20.597656 -24.757812 20.671875 -23.9375 C 20.753906 -23.125 20.445312 -22.34375 19.75 -21.59375 C 18.289062 -20.289062 16.609375 -19.515625 14.703125 -19.265625 C 12.566406 -18.898438 10.414062 -18.675781 8.25 -18.59375 C 7.207031 -18.59375 6.472656 -18.375 6.046875 -17.9375 C 5.628906 -17.507812 5.382812 -16.769531 5.3125 -15.71875 C 4.976562 -12.875 5.890625 -10.554688 8.046875 -8.765625 C 9.390625 -7.691406 11.019531 -7.234375 12.9375 -7.390625 C 14.863281 -7.554688 16.90625 -8.078125 19.0625 -8.953125 C 21.21875 -9.828125 23.332031 -10.847656 25.40625 -12.015625 C 27.476562 -13.191406 29.34375 -14.300781 31 -15.34375 C 31.707031 -15.800781 32.332031 -16.175781 32.875 -16.46875 Z M 9.171875 -22.546875 C 9.171875 -22.492188 9.140625 -22.46875 9.078125 -22.46875 C 8.984375 -22.382812 8.859375 -22.28125 8.703125 -22.15625 C 8.554688 -22.03125 8.421875 -21.90625 8.296875 -21.78125 C 8.171875 -21.65625 8.109375 -21.566406 8.109375 -21.515625 C 8.160156 -21.359375 8.570312 -21.316406 9.34375 -21.390625 C 10.113281 -21.472656 10.960938 -21.609375 11.890625 -21.796875 C 12.828125 -21.992188 13.609375 -22.257812 14.234375 -22.59375 C 14.859375 -22.925781 15.046875 -23.316406 14.796875 -23.765625 C 14.679688 -23.898438 14.539062 -24.019531 14.375 -24.125 C 14.207031 -24.226562 14.019531 -24.300781 13.8125 -24.34375 C 12.90625 -24.34375 12.078125 -24.164062 11.328125 -23.8125 C 10.578125 -23.46875 9.859375 -23.046875 9.171875 -22.546875 Z M 9.171875 -22.546875 "/></g></g><g style="fill:#462009;fill-opacity:0.1882;"><g transform="translate(290.707121, 307.105256)"><path style="stroke:none" d="M 32.875 -16.46875 C 33.375 -16.769531 33.863281 -17 34.34375 -17.15625 C 34.820312 -17.3125 35.132812 -17.296875 35.28125 -17.109375 C 35.425781 -16.929688 35.226562 -16.523438 34.6875 -15.890625 C 32.976562 -13.929688 30.9375 -12.140625 28.5625 -10.515625 C 26.1875 -8.890625 23.75 -7.519531 21.25 -6.40625 C 19.289062 -5.519531 17.222656 -4.816406 15.046875 -4.296875 C 12.878906 -3.773438 10.734375 -3.660156 8.609375 -3.953125 C 6.484375 -4.253906 4.546875 -5.195312 2.796875 -6.78125 C 0.140625 -9.238281 -0.960938 -12.242188 -0.515625 -15.796875 C -0.128906 -18.609375 0.960938 -21 2.765625 -22.96875 C 4.578125 -24.9375 6.859375 -26.269531 9.609375 -26.96875 C 11.910156 -27.46875 14.207031 -27.523438 16.5 -27.140625 C 17.550781 -26.984375 18.507812 -26.632812 19.375 -26.09375 C 20.164062 -25.476562 20.597656 -24.757812 20.671875 -23.9375 C 20.753906 -23.125 20.445312 -22.34375 19.75 -21.59375 C 18.289062 -20.289062 16.609375 -19.515625 14.703125 -19.265625 C 12.566406 -18.898438 10.414062 -18.675781 8.25 -18.59375 C 7.207031 -18.59375 6.472656 -18.375 6.046875 -17.9375 C 5.628906 -17.507812 5.382812 -16.769531 5.3125 -15.71875 C 4.976562 -12.875 5.890625 -10.554688 8.046875 -8.765625 C 9.390625 -7.691406 11.019531 -7.234375 12.9375 -7.390625 C 14.863281 -7.554688 16.90625 -8.078125 19.0625 -8.953125 C 21.21875 -9.828125 23.332031 -10.847656 25.40625 -12.015625 C 27.476562 -13.191406 29.34375 -14.300781 31 -15.34375 C 31.707031 -15.800781 32.332031 -16.175781 32.875 -16.46875 Z M 9.171875 -22.546875 C 9.171875 -22.492188 9.140625 -22.46875 9.078125 -22.46875 C 8.984375 -22.382812 8.859375 -22.28125 8.703125 -22.15625 C 8.554688 -22.03125 8.421875 -21.90625 8.296875 -21.78125 C 8.171875 -21.65625 8.109375 -21.566406 8.109375 -21.515625 C 8.160156 -21.359375 8.570312 -21.316406 9.34375 -21.390625 C 10.113281 -21.472656 10.960938 -21.609375 11.890625 -21.796875 C 12.828125 -21.992188 13.609375 -22.257812 14.234375 -22.59375 C 14.859375 -22.925781 15.046875 -23.316406 14.796875 -23.765625 C 14.679688 -23.898438 14.539062 -24.019531 14.375 -24.125 C 14.207031 -24.226562 14.019531 -24.300781 13.8125 -24.34375 C 12.90625 -24.34375 12.078125 -24.164062 11.328125 -23.8125 C 10.578125 -23.46875 9.859375 -23.046875 9.171875 -22.546875 Z M 9.171875 -22.546875 "/></g></g><g style="fill:#462009;fill-opacity:0.1882;"><g transform="translate(323.717054, 307.105256)"><path style="stroke:none" d="M 25.953125 -16.78125 C 26.992188 -17.03125 28.34375 -17.753906 30 -18.953125 C 31.664062 -20.160156 32.414062 -20.1875 32.25 -19.03125 C 32.09375 -17.875 31.191406 -16.90625 29.546875 -16.125 C 27.898438 -15.351562 26.382812 -14.796875 25 -14.453125 C 24.632812 -14.347656 24.273438 -14.15625 23.921875 -13.875 C 23.566406 -13.601562 23.347656 -13.296875 23.265625 -12.953125 C 23.015625 -11.503906 22.515625 -10.15625 21.765625 -8.90625 C 19.804688 -5.851562 17.03125 -4.644531 13.4375 -5.28125 C 12.03125 -5.644531 11.125 -6.335938 10.71875 -7.359375 C 10.320312 -8.390625 10.523438 -9.53125 11.328125 -10.78125 C 12.441406 -12.226562 13.816406 -13.304688 15.453125 -14.015625 C 16.066406 -14.304688 16.625 -14.523438 17.125 -14.671875 C 17.375 -14.773438 17.664062 -14.875 18 -14.96875 C 18.664062 -15.332031 19.019531 -16.023438 19.0625 -17.046875 C 19.101562 -18.078125 18.863281 -19.101562 18.34375 -20.125 C 17.820312 -21.144531 17.09375 -21.84375 16.15625 -22.21875 C 15.226562 -22.59375 14.117188 -22.257812 12.828125 -21.21875 C 11.578125 -20.050781 10.632812 -18.695312 10 -17.15625 C 8.488281 -14.0625 7.453125 -10.8125 6.890625 -7.40625 C 5.890625 -1.394531 5.195312 4.609375 4.8125 10.609375 C 4.644531 13.398438 4.367188 16.171875 3.984375 18.921875 C 3.828125 20.085938 3.703125 21.269531 3.609375 22.46875 C 3.546875 22.851562 3.445312 23.253906 3.3125 23.671875 C 3.101562 24.421875 2.546875 24.738281 1.640625 24.625 C 0.703125 24.570312 0.203125 24.148438 0.140625 23.359375 C 0.0859375 22.515625 0.0859375 21.660156 0.140625 20.796875 C 0.140625 20.597656 0.140625 20.429688 0.140625 20.296875 C 0.203125 19.242188 0.257812 18.1875 0.3125 17.125 C 0.351562 15.238281 0.394531 13.363281 0.4375 11.5 C 0.550781 3.90625 0.507812 -3.742188 0.3125 -11.453125 C 0.257812 -14.347656 0.203125 -17.203125 0.140625 -20.015625 C 0.140625 -20.316406 0.140625 -20.613281 0.140625 -20.90625 C 0.046875 -21.90625 0.0976562 -22.878906 0.296875 -23.828125 C 0.503906 -24.785156 1.132812 -25.332031 2.1875 -25.46875 C 3.269531 -25.582031 3.9375 -25.082031 4.1875 -23.96875 C 4.1875 -23.882812 4.1875 -23.785156 4.1875 -23.671875 C 4.550781 -21.535156 4.882812 -18.710938 5.1875 -15.203125 C 5.976562 -17.546875 6.976562 -19.429688 8.1875 -20.859375 C 9.394531 -22.296875 10.816406 -23.359375 12.453125 -24.046875 C 13.816406 -24.660156 15.21875 -24.90625 16.65625 -24.78125 C 18.101562 -24.65625 19.414062 -24.0625 20.59375 -23 C 21.78125 -21.945312 22.585938 -20.375 23.015625 -18.28125 C 23.222656 -17.375 23.503906 -16.832031 23.859375 -16.65625 C 24.210938 -16.488281 24.910156 -16.53125 25.953125 -16.78125 Z M 15.75 -7.46875 C 16.664062 -7.96875 17.375 -8.628906 17.875 -9.453125 C 18.375 -10.285156 18.632812 -11.015625 18.65625 -11.640625 C 18.675781 -12.265625 18.414062 -12.5 17.875 -12.34375 C 16.457031 -11.800781 15.488281 -11.09375 14.96875 -10.21875 C 14.445312 -9.34375 14.269531 -8.59375 14.4375 -7.96875 C 14.613281 -7.34375 15.050781 -7.175781 15.75 -7.46875 Z M 15.75 -7.46875 "/></g></g><g style="fill:#7ba9d3;fill-opacity:1;"><g transform="translate(7.854319, 304.018465)"><path style="stroke:none" d="M 83.21875 -100.0625 C 83.800781 -99.96875 84.242188 -99.640625 84.546875 -99.078125 C 84.703125 -98.773438 84.71875 -98.507812 84.59375 -98.28125 C 84.46875 -98.050781 84.300781 -97.8125 84.09375 -97.5625 C 82.257812 -95.882812 80.382812 -94.171875 78.46875 -92.421875 C 76.625 -90.671875 74.769531 -88.941406 72.90625 -87.234375 C 68.113281 -82.734375 63.316406 -78.234375 58.515625 -73.734375 C 49.109375 -64.984375 39.707031 -56.207031 30.3125 -47.40625 C 25.519531 -42.988281 21 -38.28125 16.75 -33.28125 C 15.25 -31.53125 13.835938 -29.675781 12.515625 -27.71875 C 11.628906 -26.425781 10.914062 -25.03125 10.375 -23.53125 C 9.414062 -21.03125 10.003906 -18.953125 12.140625 -17.296875 C 13.546875 -16.296875 15.023438 -15.421875 16.578125 -14.671875 C 18.867188 -13.523438 21.21875 -12.546875 23.625 -11.734375 C 26.039062 -10.929688 28.460938 -10.191406 30.890625 -9.515625 C 39.097656 -7.109375 47.304688 -4.734375 55.515625 -2.390625 C 56.222656 -2.179688 56.929688 -1.972656 57.640625 -1.765625 C 57.773438 -1.722656 57.941406 -1.679688 58.140625 -1.640625 C 58.691406 -1.472656 59.21875 -1.273438 59.71875 -1.046875 C 60.21875 -0.828125 60.671875 -0.488281 61.078125 -0.03125 C 61.328125 0.257812 61.398438 0.59375 61.296875 0.96875 C 61.191406 1.34375 60.992188 1.597656 60.703125 1.734375 C 59.660156 2.148438 58.660156 2.128906 57.703125 1.671875 C 56.410156 1.035156 55.054688 0.539062 53.640625 0.1875 C 52.234375 -0.164062 50.8125 -0.488281 49.375 -0.78125 C 48.125 -1.03125 46.875 -1.335938 45.625 -1.703125 C 43.675781 -2.203125 41.722656 -2.679688 39.765625 -3.140625 C 34.515625 -4.429688 29.304688 -5.875 24.140625 -7.46875 C 19.847656 -8.757812 15.65625 -10.335938 11.5625 -12.203125 C 10.40625 -12.753906 9.675781 -12.914062 9.375 -12.6875 C 9.082031 -12.457031 8.9375 -11.695312 8.9375 -10.40625 C 8.882812 -9.65625 8.859375 -8.925781 8.859375 -8.21875 C 8.910156 -7.925781 8.9375 -7.628906 8.9375 -7.328125 C 8.9375 -3.367188 8.9375 0.582031 8.9375 4.53125 C 8.9375 14.832031 8.910156 25.109375 8.859375 35.359375 C 8.859375 37.816406 8.757812 40.273438 8.5625 42.734375 C 8.507812 43.867188 8.453125 45.039062 8.390625 46.25 C 8.390625 46.695312 8.316406 47.109375 8.171875 47.484375 C 8.023438 47.859375 7.722656 48.148438 7.265625 48.359375 C 6.378906 48.742188 5.609375 48.757812 4.953125 48.40625 C 4.304688 48.050781 3.925781 47.429688 3.8125 46.546875 C 3.769531 45.753906 3.726562 44.984375 3.6875 44.234375 C 3.4375 40.523438 3.285156 36.796875 3.234375 33.046875 C 3.234375 19.335938 3.234375 5.628906 3.234375 -8.078125 C 3.234375 -13.128906 3.234375 -18.15625 3.234375 -23.15625 C 3.234375 -23.15625 3.257812 -23.15625 3.3125 -23.15625 C 3.3125 -28.207031 3.3125 -33.253906 3.3125 -38.296875 C 3.257812 -53.253906 3.257812 -68.238281 3.3125 -83.25 C 3.3125 -86.613281 3.410156 -89.941406 3.609375 -93.234375 C 3.660156 -94.617188 4.378906 -95.367188 5.765625 -95.484375 C 7.378906 -95.691406 8.285156 -95.007812 8.484375 -93.4375 C 8.734375 -91.4375 8.859375 -89.414062 8.859375 -87.375 C 8.859375 -77.820312 8.859375 -68.269531 8.859375 -58.71875 C 8.910156 -51.71875 8.9375 -44.738281 8.9375 -37.78125 C 8.9375 -36.488281 9.003906 -35.195312 9.140625 -33.90625 C 9.140625 -33.832031 9.191406 -33.769531 9.296875 -33.71875 C 9.398438 -33.675781 9.5 -33.632812 9.59375 -33.59375 C 9.695312 -33.550781 9.773438 -33.550781 9.828125 -33.59375 C 9.984375 -33.59375 10.113281 -33.644531 10.21875 -33.75 C 10.320312 -33.851562 10.414062 -33.945312 10.5 -34.03125 C 13.84375 -37.988281 17.351562 -41.75 21.03125 -45.3125 C 24.71875 -48.882812 28.4375 -52.421875 32.1875 -55.921875 C 32.4375 -56.128906 32.6875 -56.359375 32.9375 -56.609375 C 44.144531 -67.066406 55.398438 -77.46875 66.703125 -87.8125 C 69.203125 -90.132812 71.679688 -92.441406 74.140625 -94.734375 C 75.773438 -96.191406 77.421875 -97.613281 79.078125 -99 C 80.285156 -99.957031 81.664062 -100.3125 83.21875 -100.0625 Z M 83.21875 -100.0625 "/></g></g><g style="fill:#7ba9d3;fill-opacity:1;"><g transform="translate(72.987553, 304.018465)"><path style="stroke:none" d="M 17.6875 -13.84375 C 16.988281 -12.382812 15.789062 -10.769531 14.09375 -9 C 12.40625 -7.226562 10.484375 -6.101562 8.328125 -5.625 C 6.179688 -5.144531 4.132812 -5.882812 2.1875 -7.84375 C 1.4375 -8.707031 0.882812 -9.703125 0.53125 -10.828125 C 0.175781 -11.953125 0.046875 -13.0625 0.140625 -14.15625 C 0.140625 -14.445312 0.140625 -14.820312 0.140625 -15.28125 C 0.140625 -16.4375 0.1875 -17.773438 0.28125 -19.296875 C 0.382812 -20.828125 0.613281 -22.203125 0.96875 -23.421875 C 1.320312 -24.648438 1.875 -25.390625 2.625 -25.640625 C 4.78125 -26.191406 5.953125 -25.441406 6.140625 -23.390625 C 6.140625 -22.734375 6.117188 -22.078125 6.078125 -21.421875 C 6.023438 -21.078125 6 -20.757812 6 -20.46875 C 5.957031 -19.507812 5.910156 -18.550781 5.859375 -17.59375 C 5.859375 -16.84375 5.828125 -16.09375 5.765625 -15.34375 C 5.710938 -12.050781 6.445312 -10.09375 7.96875 -9.46875 C 9.5 -8.84375 11.238281 -9.503906 13.1875 -11.453125 C 15.144531 -13.410156 16.425781 -15.035156 17.03125 -16.328125 C 17.632812 -17.628906 18.070312 -17.90625 18.34375 -17.15625 C 18.613281 -16.40625 18.394531 -15.300781 17.6875 -13.84375 Z M 5.6875 -32.671875 C 5.394531 -32.421875 5.035156 -32.257812 4.609375 -32.1875 C 4.191406 -32.125 3.828125 -32.160156 3.515625 -32.296875 C 3.265625 -32.503906 3.101562 -32.769531 3.03125 -33.09375 C 2.96875 -33.425781 2.9375 -33.820312 2.9375 -34.28125 C 2.9375 -34.363281 2.957031 -34.453125 3 -34.546875 C 3.039062 -34.953125 3.144531 -35.363281 3.3125 -35.78125 C 3.757812 -36.863281 4.703125 -37.363281 6.140625 -37.28125 C 6.640625 -37.207031 7.03125 -37 7.3125 -36.65625 C 7.59375 -36.320312 7.65625 -35.925781 7.5 -35.46875 C 7.15625 -34.351562 6.550781 -33.421875 5.6875 -32.671875 Z M 5.6875 -32.671875 "/></g></g><g style="fill:#7ba9d3;fill-opacity:1;"><g transform="translate(89.731238, 304.018465)"><path style="stroke:none" d="M 53.515625 -16.640625 C 53.710938 -17.023438 54.019531 -17.226562 54.4375 -17.25 C 54.863281 -17.28125 55.222656 -17.019531 55.515625 -16.46875 C 55.628906 -16.332031 55.519531 -15.953125 55.1875 -15.328125 C 54.863281 -14.703125 54.425781 -13.992188 53.875 -13.203125 C 53.332031 -12.421875 52.8125 -11.707031 52.3125 -11.0625 C 51.8125 -10.414062 51.457031 -9.988281 51.25 -9.78125 C 49 -7.28125 46.738281 -5.445312 44.46875 -4.28125 C 42.195312 -3.113281 39.726562 -2.863281 37.0625 -3.53125 C 34.40625 -4.195312 31.429688 -6.085938 28.140625 -9.203125 C 27.640625 -9.753906 27.140625 -10.300781 26.640625 -10.84375 C 26.503906 -11 26.378906 -11.144531 26.265625 -11.28125 C 25.710938 -11.894531 25.109375 -11.976562 24.453125 -11.53125 C 23.765625 -11.03125 23.070312 -10.53125 22.375 -10.03125 C 21.757812 -9.570312 21.132812 -9.148438 20.5 -8.765625 C 18.382812 -7.304688 16.15625 -6.078125 13.8125 -5.078125 C 11.3125 -3.960938 8.6875 -3.53125 5.9375 -3.78125 C 1.632812 -4.28125 -0.59375 -6.65625 -0.75 -10.90625 C -0.789062 -13.914062 -0.148438 -16.609375 1.171875 -18.984375 C 2.503906 -21.359375 4.359375 -23.109375 6.734375 -24.234375 C 9.109375 -25.359375 11.84375 -25.578125 14.9375 -24.890625 C 15.28125 -24.828125 15.734375 -24.726562 16.296875 -24.59375 C 16.640625 -24.476562 17.0625 -24.375 17.5625 -24.28125 C 17.269531 -24.988281 17 -25.613281 16.75 -26.15625 C 16.289062 -27.0625 15.890625 -27.890625 15.546875 -28.640625 C 13.484375 -32.898438 11.800781 -37.757812 10.5 -43.21875 C 9.207031 -48.6875 8.570312 -54.296875 8.59375 -60.046875 C 8.613281 -65.804688 9.570312 -71.160156 11.46875 -76.109375 C 13.375 -81.066406 16.53125 -85.148438 20.9375 -88.359375 C 23.738281 -90.242188 26.625 -91.265625 29.59375 -91.421875 C 32.570312 -91.585938 35.382812 -90.941406 38.03125 -89.484375 C 40.6875 -88.035156 42.84375 -85.851562 44.5 -82.9375 C 46.632812 -78.9375 47.953125 -74.71875 48.453125 -70.28125 C 49.367188 -63.125 49.222656 -56.441406 48.015625 -50.234375 C 46.804688 -44.023438 44.679688 -38.15625 41.640625 -32.625 C 38.597656 -27.101562 34.722656 -21.742188 30.015625 -16.546875 C 29.554688 -16.046875 29.316406 -15.644531 29.296875 -15.34375 C 29.273438 -15.050781 29.488281 -14.628906 29.9375 -14.078125 C 30.894531 -12.828125 31.9375 -11.609375 33.0625 -10.421875 C 34.1875 -9.242188 35.441406 -8.257812 36.828125 -7.46875 C 38.785156 -6.625 40.878906 -6.609375 43.109375 -7.421875 C 45.335938 -8.242188 47.398438 -9.519531 49.296875 -11.25 C 51.191406 -12.976562 52.597656 -14.773438 53.515625 -16.640625 Z M 20.046875 -13.640625 C 20.640625 -14.140625 20.6875 -14.707031 20.1875 -15.34375 C 19.894531 -15.707031 19.597656 -16.082031 19.296875 -16.46875 C 18.484375 -17.46875 17.550781 -18.492188 16.5 -19.546875 C 15.457031 -20.609375 14.375 -21.410156 13.25 -21.953125 C 12.125 -22.503906 10.984375 -22.550781 9.828125 -22.09375 C 8.234375 -21.34375 6.921875 -20.019531 5.890625 -18.125 C 4.867188 -16.226562 4.265625 -14.28125 4.078125 -12.28125 C 3.898438 -10.28125 4.289062 -8.753906 5.25 -7.703125 C 6.207031 -6.660156 7.832031 -6.5625 10.125 -7.40625 C 13.738281 -8.988281 17.046875 -11.066406 20.046875 -13.640625 Z M 27.625 -21.046875 C 32.414062 -26.703125 36 -32.269531 38.375 -37.75 C 40.757812 -43.226562 42.367188 -49.640625 43.203125 -56.984375 C 43.453125 -58.785156 43.566406 -61.140625 43.546875 -64.046875 C 43.523438 -66.953125 43.265625 -69.988281 42.765625 -73.15625 C 42.265625 -76.332031 41.363281 -79.222656 40.0625 -81.828125 C 38.769531 -84.429688 36.957031 -86.304688 34.625 -87.453125 C 32.300781 -88.609375 29.320312 -88.601562 25.6875 -87.4375 C 21.675781 -85.09375 18.703125 -81.984375 16.765625 -78.109375 C 14.835938 -74.234375 13.738281 -69.921875 13.46875 -65.171875 C 13.195312 -60.421875 13.507812 -55.566406 14.40625 -50.609375 C 15.300781 -45.648438 16.550781 -40.945312 18.15625 -36.5 C 19.757812 -32.0625 21.484375 -28.191406 23.328125 -24.890625 C 23.535156 -24.484375 23.738281 -24.078125 23.9375 -23.671875 C 24.488281 -22.328125 25.285156 -21.109375 26.328125 -20.015625 C 26.484375 -20.148438 26.644531 -20.273438 26.8125 -20.390625 C 27.101562 -20.578125 27.375 -20.796875 27.625 -21.046875 Z M 27.625 -21.046875 "/></g></g><g style="fill:#7ba9d3;fill-opacity:1;"><g transform="translate(142.929063, 304.018465)"><path style="stroke:none" d="M 53.515625 -16.640625 C 53.710938 -17.023438 54.019531 -17.226562 54.4375 -17.25 C 54.863281 -17.28125 55.222656 -17.019531 55.515625 -16.46875 C 55.628906 -16.332031 55.519531 -15.953125 55.1875 -15.328125 C 54.863281 -14.703125 54.425781 -13.992188 53.875 -13.203125 C 53.332031 -12.421875 52.8125 -11.707031 52.3125 -11.0625 C 51.8125 -10.414062 51.457031 -9.988281 51.25 -9.78125 C 49 -7.28125 46.738281 -5.445312 44.46875 -4.28125 C 42.195312 -3.113281 39.726562 -2.863281 37.0625 -3.53125 C 34.40625 -4.195312 31.429688 -6.085938 28.140625 -9.203125 C 27.640625 -9.753906 27.140625 -10.300781 26.640625 -10.84375 C 26.503906 -11 26.378906 -11.144531 26.265625 -11.28125 C 25.710938 -11.894531 25.109375 -11.976562 24.453125 -11.53125 C 23.765625 -11.03125 23.070312 -10.53125 22.375 -10.03125 C 21.757812 -9.570312 21.132812 -9.148438 20.5 -8.765625 C 18.382812 -7.304688 16.15625 -6.078125 13.8125 -5.078125 C 11.3125 -3.960938 8.6875 -3.53125 5.9375 -3.78125 C 1.632812 -4.28125 -0.59375 -6.65625 -0.75 -10.90625 C -0.789062 -13.914062 -0.148438 -16.609375 1.171875 -18.984375 C 2.503906 -21.359375 4.359375 -23.109375 6.734375 -24.234375 C 9.109375 -25.359375 11.84375 -25.578125 14.9375 -24.890625 C 15.28125 -24.828125 15.734375 -24.726562 16.296875 -24.59375 C 16.640625 -24.476562 17.0625 -24.375 17.5625 -24.28125 C 17.269531 -24.988281 17 -25.613281 16.75 -26.15625 C 16.289062 -27.0625 15.890625 -27.890625 15.546875 -28.640625 C 13.484375 -32.898438 11.800781 -37.757812 10.5 -43.21875 C 9.207031 -48.6875 8.570312 -54.296875 8.59375 -60.046875 C 8.613281 -65.804688 9.570312 -71.160156 11.46875 -76.109375 C 13.375 -81.066406 16.53125 -85.148438 20.9375 -88.359375 C 23.738281 -90.242188 26.625 -91.265625 29.59375 -91.421875 C 32.570312 -91.585938 35.382812 -90.941406 38.03125 -89.484375 C 40.6875 -88.035156 42.84375 -85.851562 44.5 -82.9375 C 46.632812 -78.9375 47.953125 -74.71875 48.453125 -70.28125 C 49.367188 -63.125 49.222656 -56.441406 48.015625 -50.234375 C 46.804688 -44.023438 44.679688 -38.15625 41.640625 -32.625 C 38.597656 -27.101562 34.722656 -21.742188 30.015625 -16.546875 C 29.554688 -16.046875 29.316406 -15.644531 29.296875 -15.34375 C 29.273438 -15.050781 29.488281 -14.628906 29.9375 -14.078125 C 30.894531 -12.828125 31.9375 -11.609375 33.0625 -10.421875 C 34.1875 -9.242188 35.441406 -8.257812 36.828125 -7.46875 C 38.785156 -6.625 40.878906 -6.609375 43.109375 -7.421875 C 45.335938 -8.242188 47.398438 -9.519531 49.296875 -11.25 C 51.191406 -12.976562 52.597656 -14.773438 53.515625 -16.640625 Z M 20.046875 -13.640625 C 20.640625 -14.140625 20.6875 -14.707031 20.1875 -15.34375 C 19.894531 -15.707031 19.597656 -16.082031 19.296875 -16.46875 C 18.484375 -17.46875 17.550781 -18.492188 16.5 -19.546875 C 15.457031 -20.609375 14.375 -21.410156 13.25 -21.953125 C 12.125 -22.503906 10.984375 -22.550781 9.828125 -22.09375 C 8.234375 -21.34375 6.921875 -20.019531 5.890625 -18.125 C 4.867188 -16.226562 4.265625 -14.28125 4.078125 -12.28125 C 3.898438 -10.28125 4.289062 -8.753906 5.25 -7.703125 C 6.207031 -6.660156 7.832031 -6.5625 10.125 -7.40625 C 13.738281 -8.988281 17.046875 -11.066406 20.046875 -13.640625 Z M 27.625 -21.046875 C 32.414062 -26.703125 36 -32.269531 38.375 -37.75 C 40.757812 -43.226562 42.367188 -49.640625 43.203125 -56.984375 C 43.453125 -58.785156 43.566406 -61.140625 43.546875 -64.046875 C 43.523438 -66.953125 43.265625 -69.988281 42.765625 -73.15625 C 42.265625 -76.332031 41.363281 -79.222656 40.0625 -81.828125 C 38.769531 -84.429688 36.957031 -86.304688 34.625 -87.453125 C 32.300781 -88.609375 29.320312 -88.601562 25.6875 -87.4375 C 21.675781 -85.09375 18.703125 -81.984375 16.765625 -78.109375 C 14.835938 -74.234375 13.738281 -69.921875 13.46875 -65.171875 C 13.195312 -60.421875 13.507812 -55.566406 14.40625 -50.609375 C 15.300781 -45.648438 16.550781 -40.945312 18.15625 -36.5 C 19.757812 -32.0625 21.484375 -28.191406 23.328125 -24.890625 C 23.535156 -24.484375 23.738281 -24.078125 23.9375 -23.671875 C 24.488281 -22.328125 25.285156 -21.109375 26.328125 -20.015625 C 26.484375 -20.148438 26.644531 -20.273438 26.8125 -20.390625 C 27.101562 -20.578125 27.375 -20.796875 27.625 -21.046875 Z M 27.625 -21.046875 "/></g></g><g style="fill:#7ba9d3;fill-opacity:1;"><g transform="translate(196.126888, 304.018465)"><path style="stroke:none" d="M 26.1875 -18.65625 C 26.53125 -19 26.710938 -18.582031 26.734375 -17.40625 C 26.753906 -16.238281 25.691406 -14.601562 23.546875 -12.5 C 21.398438 -10.394531 19.175781 -9.398438 16.875 -9.515625 C 16.375 -9.554688 15.945312 -9.515625 15.59375 -9.390625 C 15.25 -9.265625 14.953125 -8.976562 14.703125 -8.53125 C 14.453125 -8.113281 14.15625 -7.738281 13.8125 -7.40625 C 13.8125 -7.40625 13.789062 -7.378906 13.75 -7.328125 C 12.332031 -5.828125 10.675781 -4.835938 8.78125 -4.359375 C 6.882812 -3.890625 5.082031 -4.039062 3.375 -4.8125 C 1.664062 -5.582031 0.4375 -7.046875 -0.3125 -9.203125 C -0.851562 -11.160156 -0.894531 -13.109375 -0.4375 -15.046875 C -0.0507812 -16.742188 0.570312 -18.34375 1.4375 -19.84375 C 2.476562 -21.84375 3.832031 -23.257812 5.5 -24.09375 C 7.175781 -24.925781 9.070312 -25.382812 11.1875 -25.46875 C 14.320312 -25.632812 16.300781 -24.160156 17.125 -21.046875 C 17.625 -19.242188 17.75 -17.421875 17.5 -15.578125 C 17.425781 -15.171875 17.34375 -14.742188 17.25 -14.296875 C 17.164062 -13.992188 17.085938 -13.695312 17.015625 -13.40625 C 16.921875 -12.40625 17.351562 -11.945312 18.3125 -12.03125 C 20.945312 -12.488281 23.570312 -14.695312 26.1875 -18.65625 Z M 7.640625 -7.03125 C 9.253906 -7.78125 10.378906 -9.050781 11.015625 -10.84375 C 8.328125 -12.550781 6.53125 -15.007812 5.625 -18.21875 C 4.78125 -16.707031 4.265625 -14.953125 4.078125 -12.953125 C 3.898438 -10.953125 4.101562 -9.296875 4.6875 -7.984375 C 5.269531 -6.679688 6.253906 -6.363281 7.640625 -7.03125 Z M 12.25 -14.390625 C 12.675781 -15.023438 12.925781 -15.804688 13 -16.734375 C 13.082031 -17.671875 13.039062 -18.597656 12.875 -19.515625 C 12.707031 -20.441406 12.46875 -21.164062 12.15625 -21.6875 C 11.851562 -22.207031 11.53125 -22.367188 11.1875 -22.171875 C 10.570312 -21.617188 10.226562 -20.832031 10.15625 -19.8125 C 10.09375 -18.789062 10.25 -17.765625 10.625 -16.734375 C 11 -15.710938 11.539062 -14.929688 12.25 -14.390625 Z M 12.25 -14.390625 "/></g></g><g style="fill:#7ba9d3;fill-opacity:1;"><g transform="translate(221.53227, 304.018465)"><path style="stroke:none" d="M 33.625 -16.40625 C 34.3125 -17 34.78125 -17.28125 35.03125 -17.25 C 35.28125 -17.226562 35.367188 -17.039062 35.296875 -16.6875 C 35.222656 -16.34375 35.039062 -15.953125 34.75 -15.515625 C 34 -14.398438 33.039062 -13.253906 31.875 -12.078125 C 30.71875 -10.910156 29.890625 -10.101562 29.390625 -9.65625 C 26.003906 -6.601562 22.957031 -4.953125 20.25 -4.703125 C 17.550781 -4.453125 15.203125 -5.015625 13.203125 -6.390625 C 11.203125 -7.765625 9.585938 -9.335938 8.359375 -11.109375 C 7.128906 -12.890625 6.320312 -14.28125 5.9375 -15.28125 C 5.769531 -14.976562 5.664062 -14.328125 5.625 -13.328125 C 5.582031 -12.328125 5.5625 -11.144531 5.5625 -9.78125 C 5.507812 -8.445312 5.453125 -7.128906 5.390625 -5.828125 C 5.335938 -4.535156 5.210938 -3.476562 5.015625 -2.65625 C 4.710938 -1.0625 3.742188 -0.367188 2.109375 -0.578125 C 0.953125 -0.710938 0.296875 -1.316406 0.140625 -2.390625 C 0.046875 -3.066406 0 -3.757812 0 -4.46875 C 0 -5.96875 0 -7.445312 0 -8.90625 C 0.0390625 -14.90625 0.117188 -20.882812 0.234375 -26.84375 C 0.234375 -29.726562 0.367188 -34.296875 0.640625 -40.546875 C 0.921875 -46.796875 1.375 -53.410156 2 -60.390625 C 2.625 -67.367188 3.457031 -73.382812 4.5 -78.4375 C 4.90625 -80.4375 5.582031 -82.328125 6.53125 -84.109375 C 7.476562 -85.898438 8.953125 -87.046875 10.953125 -87.546875 C 11.816406 -87.722656 12.65625 -87.5625 13.46875 -87.0625 C 14.289062 -86.5625 15.03125 -85.5625 15.6875 -84.0625 C 16.320312 -82.46875 16.675781 -80.820312 16.75 -79.125 C 16.882812 -75.320312 16.425781 -70.519531 15.375 -64.71875 C 14.332031 -58.925781 13.03125 -52.90625 11.46875 -46.65625 C 9.914062 -40.40625 8.445312 -34.695312 7.0625 -29.53125 C 6.257812 -26.625 5.578125 -24.125 5.015625 -22.03125 C 5.628906 -23.125 6.445312 -24.359375 7.46875 -25.734375 C 8.488281 -27.109375 9.476562 -28.203125 10.4375 -29.015625 C 12.6875 -30.816406 15.253906 -31.441406 18.140625 -30.890625 C 21.347656 -30.191406 22.328125 -28.363281 21.078125 -25.40625 C 19.734375 -22.8125 18.070312 -20.828125 16.09375 -19.453125 C 14.113281 -18.078125 12.207031 -17.015625 10.375 -16.265625 C 12.300781 -13.554688 14.492188 -11.394531 16.953125 -9.78125 C 18.703125 -8.78125 20.628906 -8.617188 22.734375 -9.296875 C 24.835938 -9.984375 26.863281 -11.035156 28.8125 -12.453125 C 30.769531 -13.878906 32.375 -15.195312 33.625 -16.40625 Z M 8.859375 -76.1875 C 8.003906 -70.550781 7.238281 -63.441406 6.5625 -54.859375 C 5.894531 -46.273438 5.4375 -39.207031 5.1875 -33.65625 C 6.03125 -35.90625 7 -39.675781 8.09375 -44.96875 C 9.195312 -50.269531 10.226562 -55.765625 11.1875 -61.453125 C 12.144531 -67.140625 12.816406 -71.707031 13.203125 -75.15625 C 13.609375 -78.957031 13.550781 -81.429688 13.03125 -82.578125 C 12.507812 -83.722656 11.832031 -83.734375 11 -82.609375 C 10.164062 -81.484375 9.453125 -79.34375 8.859375 -76.1875 Z M 6.453125 -18.890625 C 6.648438 -18.773438 7.207031 -18.867188 8.125 -19.171875 C 9.050781 -19.484375 10.078125 -19.910156 11.203125 -20.453125 C 12.328125 -21.003906 13.242188 -21.65625 13.953125 -22.40625 C 15.648438 -24.3125 16.414062 -25.609375 16.25 -26.296875 C 16.082031 -26.992188 15.46875 -27.242188 14.40625 -27.046875 C 13.351562 -26.859375 12.328125 -26.332031 11.328125 -25.46875 C 10.179688 -24.382812 9.09375 -23.1875 8.0625 -21.875 C 7.03125 -20.570312 6.492188 -19.578125 6.453125 -18.890625 Z M 6.453125 -18.890625 "/></g></g><g style="fill:#7ba9d3;fill-opacity:1;"><g transform="translate(254.610405, 304.018465)"><path style="stroke:none" d="M 32.875 -16.46875 C 33.375 -16.769531 33.863281 -17 34.34375 -17.15625 C 34.820312 -17.3125 35.132812 -17.296875 35.28125 -17.109375 C 35.425781 -16.929688 35.226562 -16.523438 34.6875 -15.890625 C 32.976562 -13.929688 30.9375 -12.140625 28.5625 -10.515625 C 26.1875 -8.890625 23.75 -7.519531 21.25 -6.40625 C 19.289062 -5.519531 17.222656 -4.816406 15.046875 -4.296875 C 12.878906 -3.773438 10.734375 -3.660156 8.609375 -3.953125 C 6.484375 -4.253906 4.546875 -5.195312 2.796875 -6.78125 C 0.140625 -9.238281 -0.960938 -12.242188 -0.515625 -15.796875 C -0.128906 -18.609375 0.960938 -21 2.765625 -22.96875 C 4.578125 -24.9375 6.859375 -26.269531 9.609375 -26.96875 C 11.910156 -27.46875 14.207031 -27.523438 16.5 -27.140625 C 17.550781 -26.984375 18.507812 -26.632812 19.375 -26.09375 C 20.164062 -25.476562 20.597656 -24.757812 20.671875 -23.9375 C 20.753906 -23.125 20.445312 -22.34375 19.75 -21.59375 C 18.289062 -20.289062 16.609375 -19.515625 14.703125 -19.265625 C 12.566406 -18.898438 10.414062 -18.675781 8.25 -18.59375 C 7.207031 -18.59375 6.472656 -18.375 6.046875 -17.9375 C 5.628906 -17.507812 5.382812 -16.769531 5.3125 -15.71875 C 4.976562 -12.875 5.890625 -10.554688 8.046875 -8.765625 C 9.390625 -7.691406 11.019531 -7.234375 12.9375 -7.390625 C 14.863281 -7.554688 16.90625 -8.078125 19.0625 -8.953125 C 21.21875 -9.828125 23.332031 -10.847656 25.40625 -12.015625 C 27.476562 -13.191406 29.34375 -14.300781 31 -15.34375 C 31.707031 -15.800781 32.332031 -16.175781 32.875 -16.46875 Z M 9.171875 -22.546875 C 9.171875 -22.492188 9.140625 -22.46875 9.078125 -22.46875 C 8.984375 -22.382812 8.859375 -22.28125 8.703125 -22.15625 C 8.554688 -22.03125 8.421875 -21.90625 8.296875 -21.78125 C 8.171875 -21.65625 8.109375 -21.566406 8.109375 -21.515625 C 8.160156 -21.359375 8.570312 -21.316406 9.34375 -21.390625 C 10.113281 -21.472656 10.960938 -21.609375 11.890625 -21.796875 C 12.828125 -21.992188 13.609375 -22.257812 14.234375 -22.59375 C 14.859375 -22.925781 15.046875 -23.316406 14.796875 -23.765625 C 14.679688 -23.898438 14.539062 -24.019531 14.375 -24.125 C 14.207031 -24.226562 14.019531 -24.300781 13.8125 -24.34375 C 12.90625 -24.34375 12.078125 -24.164062 11.328125 -23.8125 C 10.578125 -23.46875 9.859375 -23.046875 9.171875 -22.546875 Z M 9.171875 -22.546875 "/></g></g><g style="fill:#7ba9d3;fill-opacity:1;"><g transform="translate(287.620338, 304.018465)"><path style="stroke:none" d="M 32.875 -16.46875 C 33.375 -16.769531 33.863281 -17 34.34375 -17.15625 C 34.820312 -17.3125 35.132812 -17.296875 35.28125 -17.109375 C 35.425781 -16.929688 35.226562 -16.523438 34.6875 -15.890625 C 32.976562 -13.929688 30.9375 -12.140625 28.5625 -10.515625 C 26.1875 -8.890625 23.75 -7.519531 21.25 -6.40625 C 19.289062 -5.519531 17.222656 -4.816406 15.046875 -4.296875 C 12.878906 -3.773438 10.734375 -3.660156 8.609375 -3.953125 C 6.484375 -4.253906 4.546875 -5.195312 2.796875 -6.78125 C 0.140625 -9.238281 -0.960938 -12.242188 -0.515625 -15.796875 C -0.128906 -18.609375 0.960938 -21 2.765625 -22.96875 C 4.578125 -24.9375 6.859375 -26.269531 9.609375 -26.96875 C 11.910156 -27.46875 14.207031 -27.523438 16.5 -27.140625 C 17.550781 -26.984375 18.507812 -26.632812 19.375 -26.09375 C 20.164062 -25.476562 20.597656 -24.757812 20.671875 -23.9375 C 20.753906 -23.125 20.445312 -22.34375 19.75 -21.59375 C 18.289062 -20.289062 16.609375 -19.515625 14.703125 -19.265625 C 12.566406 -18.898438 10.414062 -18.675781 8.25 -18.59375 C 7.207031 -18.59375 6.472656 -18.375 6.046875 -17.9375 C 5.628906 -17.507812 5.382812 -16.769531 5.3125 -15.71875 C 4.976562 -12.875 5.890625 -10.554688 8.046875 -8.765625 C 9.390625 -7.691406 11.019531 -7.234375 12.9375 -7.390625 C 14.863281 -7.554688 16.90625 -8.078125 19.0625 -8.953125 C 21.21875 -9.828125 23.332031 -10.847656 25.40625 -12.015625 C 27.476562 -13.191406 29.34375 -14.300781 31 -15.34375 C 31.707031 -15.800781 32.332031 -16.175781 32.875 -16.46875 Z M 9.171875 -22.546875 C 9.171875 -22.492188 9.140625 -22.46875 9.078125 -22.46875 C 8.984375 -22.382812 8.859375 -22.28125 8.703125 -22.15625 C 8.554688 -22.03125 8.421875 -21.90625 8.296875 -21.78125 C 8.171875 -21.65625 8.109375 -21.566406 8.109375 -21.515625 C 8.160156 -21.359375 8.570312 -21.316406 9.34375 -21.390625 C 10.113281 -21.472656 10.960938 -21.609375 11.890625 -21.796875 C 12.828125 -21.992188 13.609375 -22.257812 14.234375 -22.59375 C 14.859375 -22.925781 15.046875 -23.316406 14.796875 -23.765625 C 14.679688 -23.898438 14.539062 -24.019531 14.375 -24.125 C 14.207031 -24.226562 14.019531 -24.300781 13.8125 -24.34375 C 12.90625 -24.34375 12.078125 -24.164062 11.328125 -23.8125 C 10.578125 -23.46875 9.859375 -23.046875 9.171875 -22.546875 Z M 9.171875 -22.546875 "/></g></g><g style="fill:#7ba9d3;fill-opacity:1;"><g transform="translate(320.63027, 304.018465)"><path style="stroke:none" d="M 25.953125 -16.78125 C 26.992188 -17.03125 28.34375 -17.753906 30 -18.953125 C 31.664062 -20.160156 32.414062 -20.1875 32.25 -19.03125 C 32.09375 -17.875 31.191406 -16.90625 29.546875 -16.125 C 27.898438 -15.351562 26.382812 -14.796875 25 -14.453125 C 24.632812 -14.347656 24.273438 -14.15625 23.921875 -13.875 C 23.566406 -13.601562 23.347656 -13.296875 23.265625 -12.953125 C 23.015625 -11.503906 22.515625 -10.15625 21.765625 -8.90625 C 19.804688 -5.851562 17.03125 -4.644531 13.4375 -5.28125 C 12.03125 -5.644531 11.125 -6.335938 10.71875 -7.359375 C 10.320312 -8.390625 10.523438 -9.53125 11.328125 -10.78125 C 12.441406 -12.226562 13.816406 -13.304688 15.453125 -14.015625 C 16.066406 -14.304688 16.625 -14.523438 17.125 -14.671875 C 17.375 -14.773438 17.664062 -14.875 18 -14.96875 C 18.664062 -15.332031 19.019531 -16.023438 19.0625 -17.046875 C 19.101562 -18.078125 18.863281 -19.101562 18.34375 -20.125 C 17.820312 -21.144531 17.09375 -21.84375 16.15625 -22.21875 C 15.226562 -22.59375 14.117188 -22.257812 12.828125 -21.21875 C 11.578125 -20.050781 10.632812 -18.695312 10 -17.15625 C 8.488281 -14.0625 7.453125 -10.8125 6.890625 -7.40625 C 5.890625 -1.394531 5.195312 4.609375 4.8125 10.609375 C 4.644531 13.398438 4.367188 16.171875 3.984375 18.921875 C 3.828125 20.085938 3.703125 21.269531 3.609375 22.46875 C 3.546875 22.851562 3.445312 23.253906 3.3125 23.671875 C 3.101562 24.421875 2.546875 24.738281 1.640625 24.625 C 0.703125 24.570312 0.203125 24.148438 0.140625 23.359375 C 0.0859375 22.515625 0.0859375 21.660156 0.140625 20.796875 C 0.140625 20.597656 0.140625 20.429688 0.140625 20.296875 C 0.203125 19.242188 0.257812 18.1875 0.3125 17.125 C 0.351562 15.238281 0.394531 13.363281 0.4375 11.5 C 0.550781 3.90625 0.507812 -3.742188 0.3125 -11.453125 C 0.257812 -14.347656 0.203125 -17.203125 0.140625 -20.015625 C 0.140625 -20.316406 0.140625 -20.613281 0.140625 -20.90625 C 0.046875 -21.90625 0.0976562 -22.878906 0.296875 -23.828125 C 0.503906 -24.785156 1.132812 -25.332031 2.1875 -25.46875 C 3.269531 -25.582031 3.9375 -25.082031 4.1875 -23.96875 C 4.1875 -23.882812 4.1875 -23.785156 4.1875 -23.671875 C 4.550781 -21.535156 4.882812 -18.710938 5.1875 -15.203125 C 5.976562 -17.546875 6.976562 -19.429688 8.1875 -20.859375 C 9.394531 -22.296875 10.816406 -23.359375 12.453125 -24.046875 C 13.816406 -24.660156 15.21875 -24.90625 16.65625 -24.78125 C 18.101562 -24.65625 19.414062 -24.0625 20.59375 -23 C 21.78125 -21.945312 22.585938 -20.375 23.015625 -18.28125 C 23.222656 -17.375 23.503906 -16.832031 23.859375 -16.65625 C 24.210938 -16.488281 24.910156 -16.53125 25.953125 -16.78125 Z M 15.75 -7.46875 C 16.664062 -7.96875 17.375 -8.628906 17.875 -9.453125 C 18.375 -10.285156 18.632812 -11.015625 18.65625 -11.640625 C 18.675781 -12.265625 18.414062 -12.5 17.875 -12.34375 C 16.457031 -11.800781 15.488281 -11.09375 14.96875 -10.21875 C 14.445312 -9.34375 14.269531 -8.59375 14.4375 -7.96875 C 14.613281 -7.34375 15.050781 -7.175781 15.75 -7.46875 Z M 15.75 -7.46875 "/></g></g><g style="fill:#e7c785;fill-opacity:1;"><g transform="translate(223.240011, 333.339759)"><path style="stroke:none" d="M 13.765625 0 L 10.6875 0 L 10.6875 -6.28125 L 4.921875 -6.28125 L 4.921875 0 L 1.828125 0 L 1.828125 -14.5625 L 4.921875 -14.5625 L 4.921875 -8.859375 L 10.6875 -8.859375 L 10.6875 -14.5625 L 13.765625 -14.5625 Z M 13.765625 0 "/></g></g><g style="fill:#e7c785;fill-opacity:1;"><g transform="translate(252.319393, 333.339759)"><path style="stroke:none" d="M 13.6875 -14.5625 L 13.6875 -5.140625 C 13.6875 -4.066406 13.445312 -3.125 12.96875 -2.3125 C 12.488281 -1.5 11.789062 -0.875 10.875 -0.4375 C 9.96875 -0.0078125 8.894531 0.203125 7.65625 0.203125 C 5.78125 0.203125 4.320312 -0.273438 3.28125 -1.234375 C 2.25 -2.203125 1.734375 -3.519531 1.734375 -5.1875 L 1.734375 -14.5625 L 4.8125 -14.5625 L 4.8125 -5.65625 C 4.8125 -4.53125 5.035156 -3.703125 5.484375 -3.171875 C 5.941406 -2.648438 6.691406 -2.390625 7.734375 -2.390625 C 8.742188 -2.390625 9.472656 -2.648438 9.921875 -3.171875 C 10.378906 -3.703125 10.609375 -4.535156 10.609375 -5.671875 L 10.609375 -14.5625 Z M 13.6875 -14.5625 "/></g></g><g style="fill:#e7c785;fill-opacity:1;"><g transform="translate(281.209534, 333.339759)"><path style="stroke:none" d="M 1.828125 -14.5625 L 6.359375 -14.5625 C 8.429688 -14.5625 9.929688 -14.265625 10.859375 -13.671875 C 11.796875 -13.085938 12.265625 -12.15625 12.265625 -10.875 C 12.265625 -10.007812 12.0625 -9.296875 11.65625 -8.734375 C 11.25 -8.179688 10.707031 -7.847656 10.03125 -7.734375 L 10.03125 -7.625 C 10.945312 -7.425781 11.609375 -7.039062 12.015625 -6.46875 C 12.429688 -5.90625 12.640625 -5.15625 12.640625 -4.21875 C 12.640625 -2.894531 12.15625 -1.859375 11.1875 -1.109375 C 10.226562 -0.367188 8.925781 0 7.28125 0 L 1.828125 0 Z M 4.921875 -8.796875 L 6.71875 -8.796875 C 7.550781 -8.796875 8.15625 -8.925781 8.53125 -9.1875 C 8.90625 -9.445312 9.09375 -9.875 9.09375 -10.46875 C 9.09375 -11.03125 8.890625 -11.429688 8.484375 -11.671875 C 8.078125 -11.910156 7.429688 -12.03125 6.546875 -12.03125 L 4.921875 -12.03125 Z M 4.921875 -6.34375 L 4.921875 -2.546875 L 6.9375 -2.546875 C 7.78125 -2.546875 8.40625 -2.707031 8.8125 -3.03125 C 9.21875 -3.363281 9.421875 -3.863281 9.421875 -4.53125 C 9.421875 -5.738281 8.554688 -6.34375 6.828125 -6.34375 Z M 4.921875 -6.34375 "/></g></g></g></svg>